{
    "asset" : {
        "generator" : "Khronos glTF Blender I/O v1.5.17",
        "version" : "2.0"
    },
    "scene" : 0,
    "scenes" : [
        {
            "name" : "Scene",
            "nodes" : [
                8
            ]
        }
    ],
    "nodes" : [
        {
            "mesh" : 0,
            "name" : "Cube.004",
            "scale" : [
                1.0273669958114624,
                1.00022292137146,
                1
            ]
        },
        {
            "mesh" : 1,
            "name" : "Cube.009",
            "scale" : [
                1.079007863998413,
                1.0790082216262817,
                1.2765090465545654
            ]
        },
        {
            "mesh" : 2,
            "name" : "Cube.010",
            "scale" : [
                1.0007798671722412,
                1.0964564085006714,
                1.1154404878616333
            ]
        },
        {
            "mesh" : 3,
            "name" : "Plane.001",
            "rotation" : [
                -0.7477676272392273,
                -0.03178195282816887,
                0.031284138560295105,
                0.6624611616134644
            ],
            "scale" : [
                0.45367005467414856,
                2.109192132949829,
                0.7960790395736694
            ]
        },
        {
            "mesh" : 4,
            "name" : "Plane.002",
            "rotation" : [
                0.3352366089820862,
                -0.3114047944545746,
                0.1272541880607605,
                0.8800283074378967
            ],
            "scale" : [
                0.5599667429924011,
                0.15278340876102448,
                0.465151309967041
            ]
        },
        {
            "mesh" : 5,
            "name" : "Plane.003",
            "rotation" : [
                0.030736349523067474,
                -0.6625949740409851,
                -0.7476337552070618,
                0.0326651856303215
            ],
            "scale" : [
                0.45366939902305603,
                2.1092145442962646,
                0.7960732579231262
            ]
        },
        {
            "mesh" : 6,
            "name" : "Plane.004",
            "rotation" : [
                -0.016781890764832497,
                -0.9417866468429565,
                0.32332494854927063,
                0.09064934402704239
            ],
            "scale" : [
                0.5671597123146057,
                0.15283910930156708,
                0.4592467248439789
            ]
        },
        {
            "mesh" : 7,
            "name" : "Plane.005",
            "rotation" : [
                -0.5701771378517151,
                0.4283738136291504,
                0.5290032625198364,
                0.4599451720714569
            ],
            "scale" : [
                0.439012348651886,
                2.180964708328247,
                0.7955774068832397
            ]
        },
        {
            "children" : [
                0,
                1,
                2,
                3,
                4,
                5,
                6,
                7
            ],
            "mesh" : 8,
            "name" : "Cube.003",
            "rotation" : [
                0,
                0,
                -0.04465809091925621,
                0.9990023374557495
            ]
        }
    ],
    "materials" : [
        {
            "doubleSided" : true,
            "name" : "Material.007",
            "pbrMetallicRoughness" : {
                "baseColorFactor" : [
                    0.28573355078697205,
                    0.48189952969551086,
                    0.49999991059303284,
                    1
                ],
                "metallicFactor" : 0,
                "roughnessFactor" : 0.5
            }
        },
        {
            "doubleSided" : true,
            "name" : "Material.019",
            "pbrMetallicRoughness" : {
                "baseColorFactor" : [
                    0.3140871524810791,
                    0.44393035769462585,
                    0.29681843519210815,
                    1
                ],
                "metallicFactor" : 0,
                "roughnessFactor" : 0.5
            }
        },
        {
            "doubleSided" : true,
            "name" : "Material.009",
            "pbrMetallicRoughness" : {
                "baseColorTexture" : {
                    "index" : 0
                },
                "metallicFactor" : 0,
                "roughnessFactor" : 0.5
            }
        },
        {
            "doubleSided" : true,
            "name" : "Material.008",
            "pbrMetallicRoughness" : {
                "baseColorFactor" : [
                    0.007213477976620197,
                    0.001584926270879805,
                    0.002035701647400856,
                    1
                ],
                "metallicFactor" : 0,
                "roughnessFactor" : 0.5
            }
        },
        {
            "doubleSided" : true,
            "name" : "Material.020",
            "pbrMetallicRoughness" : {
                "baseColorFactor" : [
                    0.007213477976620197,
                    0.001584926270879805,
                    0.002035701647400856,
                    1
                ],
                "metallicFactor" : 0,
                "roughnessFactor" : 0.5
            }
        },
        {
            "doubleSided" : true,
            "name" : "Material.021",
            "pbrMetallicRoughness" : {
                "baseColorFactor" : [
                    0.007213477976620197,
                    0.001584926270879805,
                    0.002035701647400856,
                    1
                ],
                "metallicFactor" : 0,
                "roughnessFactor" : 0.5
            }
        },
        {
            "doubleSided" : true,
            "name" : "Material.022",
            "pbrMetallicRoughness" : {
                "baseColorFactor" : [
                    0.007213477976620197,
                    0.001584926270879805,
                    0.002035701647400856,
                    1
                ],
                "metallicFactor" : 0,
                "roughnessFactor" : 0.5
            }
        },
        {
            "doubleSided" : true,
            "name" : "Material.023",
            "pbrMetallicRoughness" : {
                "baseColorFactor" : [
                    0.007213477976620197,
                    0.001584926270879805,
                    0.002035701647400856,
                    1
                ],
                "metallicFactor" : 0,
                "roughnessFactor" : 0.5
            }
        },
        {
            "doubleSided" : true,
            "name" : "Material.006",
            "pbrMetallicRoughness" : {
                "baseColorTexture" : {
                    "index" : 1
                },
                "metallicFactor" : 0,
                "roughnessFactor" : 0.5
            }
        }
    ],
    "meshes" : [
        {
            "name" : "Cube.004",
            "primitives" : [
                {
                    "attributes" : {
                        "POSITION" : 0,
                        "NORMAL" : 1,
                        "TEXCOORD_0" : 2
                    },
                    "indices" : 3,
                    "material" : 0
                }
            ]
        },
        {
            "name" : "Cube.009",
            "primitives" : [
                {
                    "attributes" : {
                        "POSITION" : 4,
                        "NORMAL" : 5,
                        "TEXCOORD_0" : 6
                    },
                    "indices" : 7,
                    "material" : 1
                }
            ]
        },
        {
            "name" : "Cube.010",
            "primitives" : [
                {
                    "attributes" : {
                        "POSITION" : 8,
                        "NORMAL" : 9,
                        "TEXCOORD_0" : 10
                    },
                    "indices" : 11,
                    "material" : 2
                }
            ]
        },
        {
            "name" : "Plane.001",
            "primitives" : [
                {
                    "attributes" : {
                        "POSITION" : 12,
                        "NORMAL" : 13,
                        "TEXCOORD_0" : 14
                    },
                    "indices" : 15,
                    "material" : 3
                }
            ]
        },
        {
            "name" : "Plane.002",
            "primitives" : [
                {
                    "attributes" : {
                        "POSITION" : 16,
                        "NORMAL" : 17,
                        "TEXCOORD_0" : 18
                    },
                    "indices" : 19,
                    "material" : 4
                }
            ]
        },
        {
            "name" : "Plane.003",
            "primitives" : [
                {
                    "attributes" : {
                        "POSITION" : 20,
                        "NORMAL" : 21,
                        "TEXCOORD_0" : 22
                    },
                    "indices" : 23,
                    "material" : 5
                }
            ]
        },
        {
            "name" : "Plane.004",
            "primitives" : [
                {
                    "attributes" : {
                        "POSITION" : 24,
                        "NORMAL" : 25,
                        "TEXCOORD_0" : 26
                    },
                    "indices" : 27,
                    "material" : 6
                }
            ]
        },
        {
            "name" : "Plane.005",
            "primitives" : [
                {
                    "attributes" : {
                        "POSITION" : 28,
                        "NORMAL" : 29,
                        "TEXCOORD_0" : 30
                    },
                    "indices" : 31,
                    "material" : 7
                }
            ]
        },
        {
            "name" : "Cube.003",
            "primitives" : [
                {
                    "attributes" : {
                        "POSITION" : 32,
                        "NORMAL" : 33,
                        "TEXCOORD_0" : 34
                    },
                    "indices" : 35,
                    "material" : 8
                }
            ]
        }
    ],
    "textures" : [
        {
            "sampler" : 0,
            "source" : 0
        },
        {
            "sampler" : 0,
            "source" : 1
        }
    ],
    "images" : [
        {
            "bufferView" : 12,
            "mimeType" : "image/png",
            "name" : "Untitled"
        },
        {
            "bufferView" : 37,
            "mimeType" : "image/png",
            "name" : "jon_face_texture_ps2"
        }
    ],
    "accessors" : [
        {
            "bufferView" : 0,
            "componentType" : 5126,
            "count" : 687,
            "max" : [
                0.0615275576710701,
                2.2497878074645996,
                0.404430091381073
            ],
            "min" : [
                -0.40527892112731934,
                1.268929362297058,
                -0.40655791759490967
            ],
            "type" : "VEC3"
        },
        {
            "bufferView" : 1,
            "componentType" : 5126,
            "count" : 687,
            "type" : "VEC3"
        },
        {
            "bufferView" : 2,
            "componentType" : 5126,
            "count" : 687,
            "type" : "VEC2"
        },
        {
            "bufferView" : 3,
            "componentType" : 5123,
            "count" : 1029,
            "type" : "SCALAR"
        },
        {
            "bufferView" : 4,
            "componentType" : 5126,
            "count" : 407,
            "max" : [
                0.007117994129657745,
                1.4146313667297363,
                0.22250542044639587
            ],
            "min" : [
                -0.2948201596736908,
                0.07914714515209198,
                -0.22193396091461182
            ],
            "type" : "VEC3"
        },
        {
            "bufferView" : 5,
            "componentType" : 5126,
            "count" : 407,
            "type" : "VEC3"
        },
        {
            "bufferView" : 6,
            "componentType" : 5126,
            "count" : 407,
            "type" : "VEC2"
        },
        {
            "bufferView" : 7,
            "componentType" : 5123,
            "count" : 591,
            "type" : "SCALAR"
        },
        {
            "bufferView" : 8,
            "componentType" : 5126,
            "count" : 152,
            "max" : [
                0.24806655943393707,
                0.120997354388237,
                0.21059690415859222
            ],
            "min" : [
                -0.1452033519744873,
                -0.04818589985370636,
                -0.20730186998844147
            ],
            "type" : "VEC3"
        },
        {
            "bufferView" : 9,
            "componentType" : 5126,
            "count" : 152,
            "type" : "VEC3"
        },
        {
            "bufferView" : 10,
            "componentType" : 5126,
            "count" : 152,
            "type" : "VEC2"
        },
        {
            "bufferView" : 11,
            "componentType" : 5123,
            "count" : 240,
            "type" : "SCALAR"
        },
        {
            "bufferView" : 13,
            "componentType" : 5126,
            "count" : 108,
            "max" : [
                0.25863346457481384,
                -0.060980960726737976,
                3.2336714267730713
            ],
            "min" : [
                -0.2478587031364441,
                -0.1569042205810547,
                2.790550470352173
            ],
            "type" : "VEC3"
        },
        {
            "bufferView" : 14,
            "componentType" : 5126,
            "count" : 108,
            "type" : "VEC3"
        },
        {
            "bufferView" : 15,
            "componentType" : 5126,
            "count" : 108,
            "type" : "VEC2"
        },
        {
            "bufferView" : 16,
            "componentType" : 5123,
            "count" : 120,
            "type" : "SCALAR"
        },
        {
            "bufferView" : 17,
            "componentType" : 5126,
            "count" : 108,
            "max" : [
                -0.06316916644573212,
                12.949698448181152,
                -3.3359687328338623
            ],
            "min" : [
                -0.2455393522977829,
                10.684113502502441,
                -3.721349000930786
            ],
            "type" : "VEC3"
        },
        {
            "bufferView" : 18,
            "componentType" : 5126,
            "count" : 108,
            "type" : "VEC3"
        },
        {
            "bufferView" : 19,
            "componentType" : 5126,
            "count" : 108,
            "type" : "VEC2"
        },
        {
            "bufferView" : 20,
            "componentType" : 5123,
            "count" : 138,
            "type" : "SCALAR"
        },
        {
            "bufferView" : 21,
            "componentType" : 5126,
            "count" : 90,
            "max" : [
                0.30007001757621765,
                -0.06554317474365234,
                3.2438886165618896
            ],
            "min" : [
                -0.24817714095115662,
                -0.15246674418449402,
                2.800767660140991
            ],
            "type" : "VEC3"
        },
        {
            "bufferView" : 22,
            "componentType" : 5126,
            "count" : 90,
            "type" : "VEC3"
        },
        {
            "bufferView" : 23,
            "componentType" : 5126,
            "count" : 90,
            "type" : "VEC2"
        },
        {
            "bufferView" : 24,
            "componentType" : 5123,
            "count" : 120,
            "type" : "SCALAR"
        },
        {
            "bufferView" : 25,
            "componentType" : 5126,
            "count" : 106,
            "max" : [
                0.7074174284934998,
                13.213672637939453,
                -3.067575216293335
            ],
            "min" : [
                0.4859926998615265,
                11.09926986694336,
                -3.505686044692993
            ],
            "type" : "VEC3"
        },
        {
            "bufferView" : 26,
            "componentType" : 5126,
            "count" : 106,
            "type" : "VEC3"
        },
        {
            "bufferView" : 27,
            "componentType" : 5126,
            "count" : 106,
            "type" : "VEC2"
        },
        {
            "bufferView" : 28,
            "componentType" : 5123,
            "count" : 138,
            "type" : "SCALAR"
        },
        {
            "bufferView" : 29,
            "componentType" : 5126,
            "count" : 124,
            "max" : [
                0.23294711112976074,
                -0.03071104921400547,
                3.2172939777374268
            ],
            "min" : [
                -0.34274259209632874,
                -0.13189467787742615,
                2.7566611766815186
            ],
            "type" : "VEC3"
        },
        {
            "bufferView" : 30,
            "componentType" : 5126,
            "count" : 124,
            "type" : "VEC3"
        },
        {
            "bufferView" : 31,
            "componentType" : 5126,
            "count" : 124,
            "type" : "VEC2"
        },
        {
            "bufferView" : 32,
            "componentType" : 5123,
            "count" : 192,
            "type" : "SCALAR"
        },
        {
            "bufferView" : 33,
            "componentType" : 5126,
            "count" : 2135,
            "max" : [
                0.16272251307964325,
                2.5598690509796143,
                0.38640373945236206
            ],
            "min" : [
                -0.3352801203727722,
                -0.021935105323791504,
                -0.3890102207660675
            ],
            "type" : "VEC3"
        },
        {
            "bufferView" : 34,
            "componentType" : 5126,
            "count" : 2135,
            "type" : "VEC3"
        },
        {
            "bufferView" : 35,
            "componentType" : 5126,
            "count" : 2135,
            "type" : "VEC2"
        },
        {
            "bufferView" : 36,
            "componentType" : 5123,
            "count" : 3144,
            "type" : "SCALAR"
        }
    ],
    "bufferViews" : [
        {
            "buffer" : 0,
            "byteLength" : 8244,
            "byteOffset" : 0
        },
        {
            "buffer" : 0,
            "byteLength" : 8244,
            "byteOffset" : 8244
        },
        {
            "buffer" : 0,
            "byteLength" : 5496,
            "byteOffset" : 16488
        },
        {
            "buffer" : 0,
            "byteLength" : 2058,
            "byteOffset" : 21984
        },
        {
            "buffer" : 0,
            "byteLength" : 4884,
            "byteOffset" : 24044
        },
        {
            "buffer" : 0,
            "byteLength" : 4884,
            "byteOffset" : 28928
        },
        {
            "buffer" : 0,
            "byteLength" : 3256,
            "byteOffset" : 33812
        },
        {
            "buffer" : 0,
            "byteLength" : 1182,
            "byteOffset" : 37068
        },
        {
            "buffer" : 0,
            "byteLength" : 1824,
            "byteOffset" : 38252
        },
        {
            "buffer" : 0,
            "byteLength" : 1824,
            "byteOffset" : 40076
        },
        {
            "buffer" : 0,
            "byteLength" : 1216,
            "byteOffset" : 41900
        },
        {
            "buffer" : 0,
            "byteLength" : 480,
            "byteOffset" : 43116
        },
        {
            "buffer" : 0,
            "byteLength" : 442067,
            "byteOffset" : 43596
        },
        {
            "buffer" : 0,
            "byteLength" : 1296,
            "byteOffset" : 485664
        },
        {
            "buffer" : 0,
            "byteLength" : 1296,
            "byteOffset" : 486960
        },
        {
            "buffer" : 0,
            "byteLength" : 864,
            "byteOffset" : 488256
        },
        {
            "buffer" : 0,
            "byteLength" : 240,
            "byteOffset" : 489120
        },
        {
            "buffer" : 0,
            "byteLength" : 1296,
            "byteOffset" : 489360
        },
        {
            "buffer" : 0,
            "byteLength" : 1296,
            "byteOffset" : 490656
        },
        {
            "buffer" : 0,
            "byteLength" : 864,
            "byteOffset" : 491952
        },
        {
            "buffer" : 0,
            "byteLength" : 276,
            "byteOffset" : 492816
        },
        {
            "buffer" : 0,
            "byteLength" : 1080,
            "byteOffset" : 493092
        },
        {
            "buffer" : 0,
            "byteLength" : 1080,
            "byteOffset" : 494172
        },
        {
            "buffer" : 0,
            "byteLength" : 720,
            "byteOffset" : 495252
        },
        {
            "buffer" : 0,
            "byteLength" : 240,
            "byteOffset" : 495972
        },
        {
            "buffer" : 0,
            "byteLength" : 1272,
            "byteOffset" : 496212
        },
        {
            "buffer" : 0,
            "byteLength" : 1272,
            "byteOffset" : 497484
        },
        {
            "buffer" : 0,
            "byteLength" : 848,
            "byteOffset" : 498756
        },
        {
            "buffer" : 0,
            "byteLength" : 276,
            "byteOffset" : 499604
        },
        {
            "buffer" : 0,
            "byteLength" : 1488,
            "byteOffset" : 499880
        },
        {
            "buffer" : 0,
            "byteLength" : 1488,
            "byteOffset" : 501368
        },
        {
            "buffer" : 0,
            "byteLength" : 992,
            "byteOffset" : 502856
        },
        {
            "buffer" : 0,
            "byteLength" : 384,
            "byteOffset" : 503848
        },
        {
            "buffer" : 0,
            "byteLength" : 25620,
            "byteOffset" : 504232
        },
        {
            "buffer" : 0,
            "byteLength" : 25620,
            "byteOffset" : 529852
        },
        {
            "buffer" : 0,
            "byteLength" : 17080,
            "byteOffset" : 555472
        },
        {
            "buffer" : 0,
            "byteLength" : 6288,
            "byteOffset" : 572552
        },
        {
            "buffer" : 0,
            "byteLength" : 11946,
            "byteOffset" : 578840
        }
    ],
    "samplers" : [
        {
            "magFilter" : 9729,
            "minFilter" : 9987
        }
    ],
    "buffers" : [
        {
            "byteLength" : 590788,
            "uri" : "data:application/octet-stream;base64,"
        }
    ]
}
