{
    "asset" : {
        "generator" : "Khronos glTF Blender I/O v1.5.17",
        "version" : "2.0"
    },
    "scene" : 0,
    "scenes" : [
        {
            "name" : "Scene",
            "nodes" : [
                8
            ]
        }
    ],
    "nodes" : [
        {
            "mesh" : 0,
            "name" : "Cube.005",
            "scale" : [
                1.0007798671722412,
                1.096456527709961,
                1.1154404878616333
            ],
            "translation" : [
                0.26992368698120117,
                -2.702650547027588,
                0
            ]
        },
        {
            "mesh" : 1,
            "name" : "Cube.006",
            "scale" : [
                1.079007863998413,
                1.0790084600448608,
                1.2765090465545654
            ],
            "translation" : [
                0.033750176429748535,
                -0.8196321129798889,
                0.03841608017683029
            ]
        },
        {
            "mesh" : 2,
            "name" : "Cube.007",
            "scale" : [
                1.0273669958114624,
                1.0002230405807495,
                1
            ],
            "translation" : [
                0.056238025426864624,
                -0.8513498902320862,
                0.030520863831043243
            ]
        },
        {
            "mesh" : 3,
            "name" : "Plane.006",
            "rotation" : [
                -0.5701771378517151,
                0.4283738434314728,
                0.5290032625198364,
                0.4599451720714569
            ],
            "scale" : [
                0.4390123188495636,
                2.180964708328247,
                0.7955774068832397
            ],
            "translation" : [
                -1.403754472732544,
                -0.6682382822036743,
                0.02565351128578186
            ]
        },
        {
            "mesh" : 4,
            "name" : "Plane.007",
            "rotation" : [
                -0.01678188517689705,
                -0.9417865872383118,
                0.3233250081539154,
                0.09064935147762299
            ],
            "scale" : [
                0.5671597123146057,
                0.15283910930156708,
                0.45924675464630127
            ],
            "translation" : [
                -0.10669174045324326,
                0.8347700834274292,
                0.058341383934020996
            ]
        },
        {
            "mesh" : 5,
            "name" : "Plane.008",
            "rotation" : [
                0.03073636069893837,
                -0.6625948548316956,
                -0.7476338744163513,
                0.032665181905031204
            ],
            "scale" : [
                0.4536695182323456,
                2.1092147827148438,
                0.7960732579231262
            ],
            "translation" : [
                -0.5540680289268494,
                -0.43684375286102295,
                0.7075350284576416
            ]
        },
        {
            "mesh" : 6,
            "name" : "Plane.009",
            "rotation" : [
                0.33523663878440857,
                -0.3114047348499298,
                0.1272541731595993,
                0.8800283670425415
            ],
            "scale" : [
                0.5599667429924011,
                0.1527833789587021,
                0.46515125036239624
            ],
            "translation" : [
                -0.10799143463373184,
                0.8500508069992065,
                -0.017169689759612083
            ]
        },
        {
            "mesh" : 7,
            "name" : "Plane.010",
            "rotation" : [
                -0.7477676272392273,
                -0.03178196772933006,
                0.03128413110971451,
                0.6624612212181091
            ],
            "scale" : [
                0.45367005467414856,
                2.109192132949829,
                0.796079158782959
            ],
            "translation" : [
                -0.5023905634880066,
                -0.48353445529937744,
                -0.6860439777374268
            ]
        },
        {
            "children" : [
                0,
                1,
                2,
                3,
                4,
                5,
                6,
                7
            ],
            "mesh" : 8,
            "name" : "Cube.008",
            "rotation" : [
                1,
                0,
                0,
                0
            ]
        }
    ],
    "materials" : [
        {
            "doubleSided" : true,
            "name" : "Material.015",
            "pbrMetallicRoughness" : {
                "baseColorTexture" : {
                    "index" : 0
                },
                "metallicFactor" : 0,
                "roughnessFactor" : 0.5
            }
        },
        {
            "doubleSided" : true,
            "name" : "Material.016",
            "pbrMetallicRoughness" : {
                "baseColorFactor" : [
                    0.3140871524810791,
                    0.44393035769462585,
                    0.29681843519210815,
                    1
                ],
                "metallicFactor" : 0,
                "roughnessFactor" : 0.5
            }
        },
        {
            "doubleSided" : true,
            "name" : "Material.017",
            "pbrMetallicRoughness" : {
                "baseColorFactor" : [
                    0.28573355078697205,
                    0.48189952969551086,
                    0.49999991059303284,
                    1
                ],
                "metallicFactor" : 0,
                "roughnessFactor" : 0.5
            }
        },
        {
            "doubleSided" : true,
            "name" : "Material.010",
            "pbrMetallicRoughness" : {
                "baseColorFactor" : [
                    0.007213477976620197,
                    0.001584926270879805,
                    0.002035701647400856,
                    1
                ],
                "metallicFactor" : 0,
                "roughnessFactor" : 0.5
            }
        },
        {
            "doubleSided" : true,
            "name" : "Material.011",
            "pbrMetallicRoughness" : {
                "baseColorFactor" : [
                    0.007213477976620197,
                    0.001584926270879805,
                    0.002035701647400856,
                    1
                ],
                "metallicFactor" : 0,
                "roughnessFactor" : 0.5
            }
        },
        {
            "doubleSided" : true,
            "name" : "Material.012",
            "pbrMetallicRoughness" : {
                "baseColorFactor" : [
                    0.007213477976620197,
                    0.001584926270879805,
                    0.002035701647400856,
                    1
                ],
                "metallicFactor" : 0,
                "roughnessFactor" : 0.5
            }
        },
        {
            "doubleSided" : true,
            "name" : "Material.013",
            "pbrMetallicRoughness" : {
                "baseColorFactor" : [
                    0.007213477976620197,
                    0.001584926270879805,
                    0.002035701647400856,
                    1
                ],
                "metallicFactor" : 0,
                "roughnessFactor" : 0.5
            }
        },
        {
            "doubleSided" : true,
            "name" : "Material.014",
            "pbrMetallicRoughness" : {
                "baseColorFactor" : [
                    0.007213477976620197,
                    0.001584926270879805,
                    0.002035701647400856,
                    1
                ],
                "metallicFactor" : 0,
                "roughnessFactor" : 0.5
            }
        },
        {
            "doubleSided" : true,
            "name" : "Material.018",
            "pbrMetallicRoughness" : {
                "baseColorTexture" : {
                    "index" : 1
                },
                "metallicFactor" : 0,
                "roughnessFactor" : 0.5
            }
        }
    ],
    "meshes" : [
        {
            "name" : "Cube.005",
            "primitives" : [
                {
                    "attributes" : {
                        "POSITION" : 0,
                        "NORMAL" : 1,
                        "TEXCOORD_0" : 2
                    },
                    "indices" : 3,
                    "material" : 0
                }
            ]
        },
        {
            "name" : "Cube.006",
            "primitives" : [
                {
                    "attributes" : {
                        "POSITION" : 4,
                        "NORMAL" : 5,
                        "TEXCOORD_0" : 6
                    },
                    "indices" : 7,
                    "material" : 1
                }
            ]
        },
        {
            "name" : "Cube.007",
            "primitives" : [
                {
                    "attributes" : {
                        "POSITION" : 8,
                        "NORMAL" : 9,
                        "TEXCOORD_0" : 10
                    },
                    "indices" : 11,
                    "material" : 2
                }
            ]
        },
        {
            "name" : "Plane.006",
            "primitives" : [
                {
                    "attributes" : {
                        "POSITION" : 12,
                        "NORMAL" : 13,
                        "TEXCOORD_0" : 14
                    },
                    "indices" : 15,
                    "material" : 3
                }
            ]
        },
        {
            "name" : "Plane.007",
            "primitives" : [
                {
                    "attributes" : {
                        "POSITION" : 16,
                        "NORMAL" : 17,
                        "TEXCOORD_0" : 18
                    },
                    "indices" : 19,
                    "material" : 4
                }
            ]
        },
        {
            "name" : "Plane.008",
            "primitives" : [
                {
                    "attributes" : {
                        "POSITION" : 20,
                        "NORMAL" : 21,
                        "TEXCOORD_0" : 22
                    },
                    "indices" : 23,
                    "material" : 5
                }
            ]
        },
        {
            "name" : "Plane.009",
            "primitives" : [
                {
                    "attributes" : {
                        "POSITION" : 24,
                        "NORMAL" : 25,
                        "TEXCOORD_0" : 26
                    },
                    "indices" : 27,
                    "material" : 6
                }
            ]
        },
        {
            "name" : "Plane.010",
            "primitives" : [
                {
                    "attributes" : {
                        "POSITION" : 28,
                        "NORMAL" : 29,
                        "TEXCOORD_0" : 30
                    },
                    "indices" : 31,
                    "material" : 7
                }
            ]
        },
        {
            "name" : "Cube.008",
            "primitives" : [
                {
                    "attributes" : {
                        "POSITION" : 32,
                        "NORMAL" : 33,
                        "TEXCOORD_0" : 34
                    },
                    "indices" : 35,
                    "material" : 8
                }
            ]
        }
    ],
    "textures" : [
        {
            "sampler" : 0,
            "source" : 0
        },
        {
            "sampler" : 0,
            "source" : 1
        }
    ],
    "images" : [
        {
            "bufferView" : 4,
            "mimeType" : "image/png",
            "name" : "Untitled"
        },
        {
            "bufferView" : 37,
            "mimeType" : "image/png",
            "name" : "jon_face_texture_ps2"
        }
    ],
    "accessors" : [
        {
            "bufferView" : 0,
            "componentType" : 5126,
            "count" : 152,
            "max" : [
                0.40093228220939636,
                2.49786639213562,
                0.22521118819713593
            ],
            "min" : [
                -0.013872411102056503,
                2.324606418609619,
                -0.19034864008426666
            ],
            "type" : "VEC3"
        },
        {
            "bufferView" : 1,
            "componentType" : 5126,
            "count" : 152,
            "type" : "VEC3"
        },
        {
            "bufferView" : 2,
            "componentType" : 5126,
            "count" : 152,
            "type" : "VEC2"
        },
        {
            "bufferView" : 3,
            "componentType" : 5123,
            "count" : 240,
            "type" : "SCALAR"
        },
        {
            "bufferView" : 5,
            "componentType" : 5126,
            "count" : 407,
            "max" : [
                0.38364046812057495,
                0.6728295683860779,
                0.20743201673030853
            ],
            "min" : [
                -0.29896628856658936,
                -0.2840265929698944,
                -0.2469405233860016
            ],
            "type" : "VEC3"
        },
        {
            "bufferView" : 6,
            "componentType" : 5126,
            "count" : 407,
            "type" : "VEC3"
        },
        {
            "bufferView" : 7,
            "componentType" : 5126,
            "count" : 407,
            "type" : "VEC2"
        },
        {
            "bufferView" : 8,
            "componentType" : 5123,
            "count" : 591,
            "type" : "SCALAR"
        },
        {
            "bufferView" : 9,
            "componentType" : 5126,
            "count" : 689,
            "max" : [
                0.15637743473052979,
                -0.0949508398771286,
                0.3726639747619629
            ],
            "min" : [
                -0.33731701970100403,
                -0.9936777949333191,
                -0.4324755370616913
            ],
            "type" : "VEC3"
        },
        {
            "bufferView" : 10,
            "componentType" : 5126,
            "count" : 689,
            "type" : "VEC3"
        },
        {
            "bufferView" : 11,
            "componentType" : 5126,
            "count" : 689,
            "type" : "VEC2"
        },
        {
            "bufferView" : 12,
            "componentType" : 5123,
            "count" : 1029,
            "type" : "SCALAR"
        },
        {
            "bufferView" : 13,
            "componentType" : 5126,
            "count" : 124,
            "max" : [
                0.5643408894538879,
                -0.3725995421409607,
                -1.6563574075698853
            ],
            "min" : [
                -0.014124737121164799,
                -0.44738563895225525,
                -2.1681318283081055
            ],
            "type" : "VEC3"
        },
        {
            "bufferView" : 14,
            "componentType" : 5126,
            "count" : 124,
            "type" : "VEC3"
        },
        {
            "bufferView" : 15,
            "componentType" : 5126,
            "count" : 124,
            "type" : "VEC2"
        },
        {
            "bufferView" : 16,
            "componentType" : 5123,
            "count" : 192,
            "type" : "SCALAR"
        },
        {
            "bufferView" : 17,
            "componentType" : 5126,
            "count" : 106,
            "max" : [
                -0.6304613351821899,
                -13.018163681030273,
                4.156514644622803
            ],
            "min" : [
                -0.8470431566238403,
                -15.185140609741211,
                3.6595077514648438
            ],
            "type" : "VEC3"
        },
        {
            "bufferView" : 18,
            "componentType" : 5126,
            "count" : 106,
            "type" : "VEC3"
        },
        {
            "bufferView" : 19,
            "componentType" : 5126,
            "count" : 106,
            "type" : "VEC2"
        },
        {
            "bufferView" : 20,
            "componentType" : 5123,
            "count" : 138,
            "type" : "SCALAR"
        },
        {
            "bufferView" : 21,
            "componentType" : 5126,
            "count" : 90,
            "max" : [
                -0.40385979413986206,
                -0.22561955451965332,
                -1.8919543027877808
            ],
            "min" : [
                -1.0167113542556763,
                -0.3171505630016327,
                -2.3468680381774902
            ],
            "type" : "VEC3"
        },
        {
            "bufferView" : 22,
            "componentType" : 5126,
            "count" : 90,
            "type" : "VEC3"
        },
        {
            "bufferView" : 23,
            "componentType" : 5126,
            "count" : 90,
            "type" : "VEC2"
        },
        {
            "bufferView" : 24,
            "componentType" : 5123,
            "count" : 120,
            "type" : "SCALAR"
        },
        {
            "bufferView" : 25,
            "componentType" : 5126,
            "count" : 108,
            "max" : [
                0.4021466374397278,
                -12.944595336914062,
                4.343252182006836
            ],
            "min" : [
                0.10165943950414658,
                -15.071828842163086,
                3.9022390842437744
            ],
            "type" : "VEC3"
        },
        {
            "bufferView" : 26,
            "componentType" : 5126,
            "count" : 108,
            "type" : "VEC3"
        },
        {
            "bufferView" : 27,
            "componentType" : 5126,
            "count" : 108,
            "type" : "VEC2"
        },
        {
            "bufferView" : 28,
            "componentType" : 5123,
            "count" : 138,
            "type" : "SCALAR"
        },
        {
            "bufferView" : 29,
            "componentType" : 5126,
            "count" : 108,
            "max" : [
                0.9129215478897095,
                -0.21707670390605927,
                -1.8001365661621094
            ],
            "min" : [
                0.35250797867774963,
                -0.3150167167186737,
                -2.271993637084961
            ],
            "type" : "VEC3"
        },
        {
            "bufferView" : 30,
            "componentType" : 5126,
            "count" : 108,
            "type" : "VEC3"
        },
        {
            "bufferView" : 31,
            "componentType" : 5126,
            "count" : 108,
            "type" : "VEC2"
        },
        {
            "bufferView" : 32,
            "componentType" : 5123,
            "count" : 120,
            "type" : "SCALAR"
        },
        {
            "bufferView" : 33,
            "componentType" : 5126,
            "count" : 2134,
            "max" : [
                0.5729004740715027,
                0.01941155456006527,
                0.3834015130996704
            ],
            "min" : [
                -0.24177424609661102,
                -2.153024196624756,
                -0.36951473355293274
            ],
            "type" : "VEC3"
        },
        {
            "bufferView" : 34,
            "componentType" : 5126,
            "count" : 2134,
            "type" : "VEC3"
        },
        {
            "bufferView" : 35,
            "componentType" : 5126,
            "count" : 2134,
            "type" : "VEC2"
        },
        {
            "bufferView" : 36,
            "componentType" : 5123,
            "count" : 3144,
            "type" : "SCALAR"
        }
    ],
    "bufferViews" : [
        {
            "buffer" : 0,
            "byteLength" : 1824,
            "byteOffset" : 0
        },
        {
            "buffer" : 0,
            "byteLength" : 1824,
            "byteOffset" : 1824
        },
        {
            "buffer" : 0,
            "byteLength" : 1216,
            "byteOffset" : 3648
        },
        {
            "buffer" : 0,
            "byteLength" : 480,
            "byteOffset" : 4864
        },
        {
            "buffer" : 0,
            "byteLength" : 442067,
            "byteOffset" : 5344
        },
        {
            "buffer" : 0,
            "byteLength" : 4884,
            "byteOffset" : 447412
        },
        {
            "buffer" : 0,
            "byteLength" : 4884,
            "byteOffset" : 452296
        },
        {
            "buffer" : 0,
            "byteLength" : 3256,
            "byteOffset" : 457180
        },
        {
            "buffer" : 0,
            "byteLength" : 1182,
            "byteOffset" : 460436
        },
        {
            "buffer" : 0,
            "byteLength" : 8268,
            "byteOffset" : 461620
        },
        {
            "buffer" : 0,
            "byteLength" : 8268,
            "byteOffset" : 469888
        },
        {
            "buffer" : 0,
            "byteLength" : 5512,
            "byteOffset" : 478156
        },
        {
            "buffer" : 0,
            "byteLength" : 2058,
            "byteOffset" : 483668
        },
        {
            "buffer" : 0,
            "byteLength" : 1488,
            "byteOffset" : 485728
        },
        {
            "buffer" : 0,
            "byteLength" : 1488,
            "byteOffset" : 487216
        },
        {
            "buffer" : 0,
            "byteLength" : 992,
            "byteOffset" : 488704
        },
        {
            "buffer" : 0,
            "byteLength" : 384,
            "byteOffset" : 489696
        },
        {
            "buffer" : 0,
            "byteLength" : 1272,
            "byteOffset" : 490080
        },
        {
            "buffer" : 0,
            "byteLength" : 1272,
            "byteOffset" : 491352
        },
        {
            "buffer" : 0,
            "byteLength" : 848,
            "byteOffset" : 492624
        },
        {
            "buffer" : 0,
            "byteLength" : 276,
            "byteOffset" : 493472
        },
        {
            "buffer" : 0,
            "byteLength" : 1080,
            "byteOffset" : 493748
        },
        {
            "buffer" : 0,
            "byteLength" : 1080,
            "byteOffset" : 494828
        },
        {
            "buffer" : 0,
            "byteLength" : 720,
            "byteOffset" : 495908
        },
        {
            "buffer" : 0,
            "byteLength" : 240,
            "byteOffset" : 496628
        },
        {
            "buffer" : 0,
            "byteLength" : 1296,
            "byteOffset" : 496868
        },
        {
            "buffer" : 0,
            "byteLength" : 1296,
            "byteOffset" : 498164
        },
        {
            "buffer" : 0,
            "byteLength" : 864,
            "byteOffset" : 499460
        },
        {
            "buffer" : 0,
            "byteLength" : 276,
            "byteOffset" : 500324
        },
        {
            "buffer" : 0,
            "byteLength" : 1296,
            "byteOffset" : 500600
        },
        {
            "buffer" : 0,
            "byteLength" : 1296,
            "byteOffset" : 501896
        },
        {
            "buffer" : 0,
            "byteLength" : 864,
            "byteOffset" : 503192
        },
        {
            "buffer" : 0,
            "byteLength" : 240,
            "byteOffset" : 504056
        },
        {
            "buffer" : 0,
            "byteLength" : 25608,
            "byteOffset" : 504296
        },
        {
            "buffer" : 0,
            "byteLength" : 25608,
            "byteOffset" : 529904
        },
        {
            "buffer" : 0,
            "byteLength" : 17072,
            "byteOffset" : 555512
        },
        {
            "buffer" : 0,
            "byteLength" : 6288,
            "byteOffset" : 572584
        },
        {
            "buffer" : 0,
            "byteLength" : 11946,
            "byteOffset" : 578872
        }
    ],
    "samplers" : [
        {
            "magFilter" : 9729,
            "minFilter" : 9987
        }
    ],
    "buffers" : [
        {
            "byteLength" : 590820,
            "uri" : "data:application/octet-stream;base64,"
        }
    ]
}
