{
    "asset" : {
        "generator" : "Khronos glTF Blender I/O v1.5.17",
        "version" : "2.0"
    },
    "scene" : 0,
    "scenes" : [
        {
            "name" : "Scene",
            "nodes" : [
                6
            ]
        }
    ],
    "nodes" : [
        {
            "mesh" : 0,
            "name" : "Cube.012",
            "rotation" : [
                0,
                0,
                0.04465808719396591,
                0.9990023374557495
            ]
        },
        {
            "mesh" : 1,
            "name" : "Plane.011",
            "rotation" : [
                -0.7456023097038269,
                -0.0651441216468811,
                0.06083718687295914,
                0.6604031920433044
            ],
            "scale" : [
                0.4536699950695038,
                2.109192132949829,
                0.7960790991783142
            ]
        },
        {
            "mesh" : 2,
            "name" : "Plane.012",
            "rotation" : [
                0.3488088846206665,
                -0.29612305760383606,
                0.1664276123046875,
                0.8734674453735352
            ],
            "scale" : [
                0.5599667429924011,
                0.15278340876102448,
                0.46515128016471863
            ]
        },
        {
            "mesh" : 3,
            "name" : "Plane.013",
            "rotation" : [
                0.060295913368463516,
                -0.6605612635612488,
                -0.7454290986061096,
                0.06602049618959427
            ],
            "scale" : [
                0.45366957783699036,
                2.109215021133423,
                0.7960733771324158
            ]
        },
        {
            "mesh" : 4,
            "name" : "Plane.014",
            "rotation" : [
                0.025293247774243355,
                -0.941596508026123,
                0.3270505666732788,
                0.0761198177933693
            ],
            "scale" : [
                0.5671597123146057,
                0.15283910930156708,
                0.45924678444862366
            ]
        },
        {
            "mesh" : 5,
            "name" : "Plane.015",
            "rotation" : [
                -0.5887386202812195,
                0.40248337388038635,
                0.5490158200263977,
                0.4358620047569275
            ],
            "scale" : [
                0.4390123784542084,
                2.180964708328247,
                0.7955775260925293
            ]
        },
        {
            "children" : [
                0,
                1,
                2,
                3,
                4,
                5
            ],
            "mesh" : 6,
            "name" : "Cube.011",
            "rotation" : [
                0,
                0,
                -0.04465809091925621,
                0.9990023374557495
            ]
        }
    ],
    "materials" : [
        {
            "doubleSided" : true,
            "name" : "Material.051",
            "pbrMetallicRoughness" : {
                "baseColorFactor" : [
                    0.2195262312889099,
                    0.6038274168968201,
                    0.25818291306495667,
                    1
                ],
                "metallicFactor" : 0,
                "roughnessFactor" : 0.5
            }
        },
        {
            "doubleSided" : true,
            "name" : "Material.046",
            "pbrMetallicRoughness" : {
                "baseColorFactor" : [
                    0.007213477976620197,
                    0.001584926270879805,
                    0.002035701647400856,
                    1
                ],
                "metallicFactor" : 0,
                "roughnessFactor" : 0.5
            }
        },
        {
            "doubleSided" : true,
            "name" : "Material.047",
            "pbrMetallicRoughness" : {
                "baseColorFactor" : [
                    0.007213477976620197,
                    0.001584926270879805,
                    0.002035701647400856,
                    1
                ],
                "metallicFactor" : 0,
                "roughnessFactor" : 0.5
            }
        },
        {
            "doubleSided" : true,
            "name" : "Material.048",
            "pbrMetallicRoughness" : {
                "baseColorFactor" : [
                    0.007213477976620197,
                    0.001584926270879805,
                    0.002035701647400856,
                    1
                ],
                "metallicFactor" : 0,
                "roughnessFactor" : 0.5
            }
        },
        {
            "doubleSided" : true,
            "name" : "Material.049",
            "pbrMetallicRoughness" : {
                "baseColorFactor" : [
                    0.007213477976620197,
                    0.001584926270879805,
                    0.002035701647400856,
                    1
                ],
                "metallicFactor" : 0,
                "roughnessFactor" : 0.5
            }
        },
        {
            "doubleSided" : true,
            "name" : "Material.050",
            "pbrMetallicRoughness" : {
                "baseColorFactor" : [
                    0.007213477976620197,
                    0.001584926270879805,
                    0.002035701647400856,
                    1
                ],
                "metallicFactor" : 0,
                "roughnessFactor" : 0.5
            }
        },
        {
            "doubleSided" : true,
            "name" : "Material.042",
            "pbrMetallicRoughness" : {
                "baseColorTexture" : {
                    "index" : 0
                },
                "metallicFactor" : 0,
                "roughnessFactor" : 0.5
            }
        }
    ],
    "meshes" : [
        {
            "name" : "Cube.023",
            "primitives" : [
                {
                    "attributes" : {
                        "POSITION" : 0,
                        "NORMAL" : 1,
                        "TEXCOORD_0" : 2
                    },
                    "indices" : 3,
                    "material" : 0
                }
            ]
        },
        {
            "name" : "Plane.021",
            "primitives" : [
                {
                    "attributes" : {
                        "POSITION" : 4,
                        "NORMAL" : 5,
                        "TEXCOORD_0" : 6
                    },
                    "indices" : 7,
                    "material" : 1
                }
            ]
        },
        {
            "name" : "Plane.022",
            "primitives" : [
                {
                    "attributes" : {
                        "POSITION" : 8,
                        "NORMAL" : 9,
                        "TEXCOORD_0" : 10
                    },
                    "indices" : 11,
                    "material" : 2
                }
            ]
        },
        {
            "name" : "Plane.023",
            "primitives" : [
                {
                    "attributes" : {
                        "POSITION" : 12,
                        "NORMAL" : 13,
                        "TEXCOORD_0" : 14
                    },
                    "indices" : 15,
                    "material" : 3
                }
            ]
        },
        {
            "name" : "Plane.024",
            "primitives" : [
                {
                    "attributes" : {
                        "POSITION" : 16,
                        "NORMAL" : 17,
                        "TEXCOORD_0" : 18
                    },
                    "indices" : 19,
                    "material" : 4
                }
            ]
        },
        {
            "name" : "Plane.025",
            "primitives" : [
                {
                    "attributes" : {
                        "POSITION" : 20,
                        "NORMAL" : 21,
                        "TEXCOORD_0" : 22
                    },
                    "indices" : 23,
                    "material" : 5
                }
            ]
        },
        {
            "name" : "Cube.019",
            "primitives" : [
                {
                    "attributes" : {
                        "POSITION" : 24,
                        "NORMAL" : 25,
                        "TEXCOORD_0" : 26
                    },
                    "indices" : 27,
                    "material" : 6
                }
            ]
        }
    ],
    "textures" : [
        {
            "sampler" : 0,
            "source" : 0
        }
    ],
    "images" : [
        {
            "bufferView" : 28,
            "mimeType" : "image/png",
            "name" : "jon_face_texture_ps2"
        }
    ],
    "accessors" : [
        {
            "bufferView" : 0,
            "componentType" : 5126,
            "count" : 92,
            "max" : [
                1.670985460281372,
                1.0100764036178589,
                0.7955865859985352
            ],
            "min" : [
                -0.5205011367797852,
                0.7290019989013672,
                -0.7956370115280151
            ],
            "type" : "VEC3"
        },
        {
            "bufferView" : 1,
            "componentType" : 5126,
            "count" : 92,
            "type" : "VEC3"
        },
        {
            "bufferView" : 2,
            "componentType" : 5126,
            "count" : 92,
            "type" : "VEC2"
        },
        {
            "bufferView" : 3,
            "componentType" : 5123,
            "count" : 138,
            "type" : "SCALAR"
        },
        {
            "bufferView" : 4,
            "componentType" : 5126,
            "count" : 110,
            "max" : [
                -1.1585564613342285,
                0.01448556873947382,
                1.384981632232666
            ],
            "min" : [
                -1.9553229808807373,
                -0.07605302333831787,
                1.0822839736938477
            ],
            "type" : "VEC3"
        },
        {
            "bufferView" : 5,
            "componentType" : 5126,
            "count" : 110,
            "type" : "VEC3"
        },
        {
            "bufferView" : 6,
            "componentType" : 5126,
            "count" : 110,
            "type" : "VEC2"
        },
        {
            "bufferView" : 7,
            "componentType" : 5123,
            "count" : 120,
            "type" : "SCALAR"
        },
        {
            "bufferView" : 8,
            "componentType" : 5126,
            "count" : 108,
            "max" : [
                -1.0263351202011108,
                7.751652717590332,
                -0.4432559013366699
            ],
            "min" : [
                -1.4047952890396118,
                6.343760967254639,
                -1.0554938316345215
            ],
            "type" : "VEC3"
        },
        {
            "bufferView" : 9,
            "componentType" : 5126,
            "count" : 108,
            "type" : "VEC3"
        },
        {
            "bufferView" : 10,
            "componentType" : 5126,
            "count" : 108,
            "type" : "VEC2"
        },
        {
            "bufferView" : 11,
            "componentType" : 5123,
            "count" : 138,
            "type" : "SCALAR"
        },
        {
            "bufferView" : 12,
            "componentType" : 5126,
            "count" : 92,
            "max" : [
                1.9728537797927856,
                0.020855657756328583,
                1.3761653900146484
            ],
            "min" : [
                1.1551169157028198,
                -0.060809824615716934,
                1.0581774711608887
            ],
            "type" : "VEC3"
        },
        {
            "bufferView" : 13,
            "componentType" : 5126,
            "count" : 92,
            "type" : "VEC3"
        },
        {
            "bufferView" : 14,
            "componentType" : 5126,
            "count" : 92,
            "type" : "VEC2"
        },
        {
            "bufferView" : 15,
            "componentType" : 5123,
            "count" : 120,
            "type" : "SCALAR"
        },
        {
            "bufferView" : 16,
            "componentType" : 5126,
            "count" : 106,
            "max" : [
                1.8609403371810913,
                5.416495323181152,
                -0.901622474193573
            ],
            "min" : [
                1.2764066457748413,
                4.621942520141602,
                -1.3516310453414917
            ],
            "type" : "VEC3"
        },
        {
            "bufferView" : 17,
            "componentType" : 5126,
            "count" : 106,
            "type" : "VEC3"
        },
        {
            "bufferView" : 18,
            "componentType" : 5126,
            "count" : 106,
            "type" : "VEC2"
        },
        {
            "bufferView" : 19,
            "componentType" : 5123,
            "count" : 138,
            "type" : "SCALAR"
        },
        {
            "bufferView" : 20,
            "componentType" : 5126,
            "count" : 124,
            "max" : [
                0.14313867688179016,
                0.34434595704078674,
                1.318604826927185
            ],
            "min" : [
                -0.4475465416908264,
                0.17968438565731049,
                1.025242567062378
            ],
            "type" : "VEC3"
        },
        {
            "bufferView" : 21,
            "componentType" : 5126,
            "count" : 124,
            "type" : "VEC3"
        },
        {
            "bufferView" : 22,
            "componentType" : 5126,
            "count" : 124,
            "type" : "VEC2"
        },
        {
            "bufferView" : 23,
            "componentType" : 5123,
            "count" : 192,
            "type" : "SCALAR"
        },
        {
            "bufferView" : 24,
            "componentType" : 5126,
            "count" : 694,
            "max" : [
                -0.3600821793079376,
                1.0235297679901123,
                0.3298705220222473
            ],
            "min" : [
                -1.0255253314971924,
                0.7031930088996887,
                -0.3243696987628937
            ],
            "type" : "VEC3"
        },
        {
            "bufferView" : 25,
            "componentType" : 5126,
            "count" : 694,
            "type" : "VEC3"
        },
        {
            "bufferView" : 26,
            "componentType" : 5126,
            "count" : 694,
            "type" : "VEC2"
        },
        {
            "bufferView" : 27,
            "componentType" : 5123,
            "count" : 1098,
            "type" : "SCALAR"
        }
    ],
    "bufferViews" : [
        {
            "buffer" : 0,
            "byteLength" : 1104,
            "byteOffset" : 0
        },
        {
            "buffer" : 0,
            "byteLength" : 1104,
            "byteOffset" : 1104
        },
        {
            "buffer" : 0,
            "byteLength" : 736,
            "byteOffset" : 2208
        },
        {
            "buffer" : 0,
            "byteLength" : 276,
            "byteOffset" : 2944
        },
        {
            "buffer" : 0,
            "byteLength" : 1320,
            "byteOffset" : 3220
        },
        {
            "buffer" : 0,
            "byteLength" : 1320,
            "byteOffset" : 4540
        },
        {
            "buffer" : 0,
            "byteLength" : 880,
            "byteOffset" : 5860
        },
        {
            "buffer" : 0,
            "byteLength" : 240,
            "byteOffset" : 6740
        },
        {
            "buffer" : 0,
            "byteLength" : 1296,
            "byteOffset" : 6980
        },
        {
            "buffer" : 0,
            "byteLength" : 1296,
            "byteOffset" : 8276
        },
        {
            "buffer" : 0,
            "byteLength" : 864,
            "byteOffset" : 9572
        },
        {
            "buffer" : 0,
            "byteLength" : 276,
            "byteOffset" : 10436
        },
        {
            "buffer" : 0,
            "byteLength" : 1104,
            "byteOffset" : 10712
        },
        {
            "buffer" : 0,
            "byteLength" : 1104,
            "byteOffset" : 11816
        },
        {
            "buffer" : 0,
            "byteLength" : 736,
            "byteOffset" : 12920
        },
        {
            "buffer" : 0,
            "byteLength" : 240,
            "byteOffset" : 13656
        },
        {
            "buffer" : 0,
            "byteLength" : 1272,
            "byteOffset" : 13896
        },
        {
            "buffer" : 0,
            "byteLength" : 1272,
            "byteOffset" : 15168
        },
        {
            "buffer" : 0,
            "byteLength" : 848,
            "byteOffset" : 16440
        },
        {
            "buffer" : 0,
            "byteLength" : 276,
            "byteOffset" : 17288
        },
        {
            "buffer" : 0,
            "byteLength" : 1488,
            "byteOffset" : 17564
        },
        {
            "buffer" : 0,
            "byteLength" : 1488,
            "byteOffset" : 19052
        },
        {
            "buffer" : 0,
            "byteLength" : 992,
            "byteOffset" : 20540
        },
        {
            "buffer" : 0,
            "byteLength" : 384,
            "byteOffset" : 21532
        },
        {
            "buffer" : 0,
            "byteLength" : 8328,
            "byteOffset" : 21916
        },
        {
            "buffer" : 0,
            "byteLength" : 8328,
            "byteOffset" : 30244
        },
        {
            "buffer" : 0,
            "byteLength" : 5552,
            "byteOffset" : 38572
        },
        {
            "buffer" : 0,
            "byteLength" : 2196,
            "byteOffset" : 44124
        },
        {
            "buffer" : 0,
            "byteLength" : 12073,
            "byteOffset" : 46320
        }
    ],
    "samplers" : [
        {
            "magFilter" : 9729,
            "minFilter" : 9987
        }
    ],
    "buffers" : [
        {
            "byteLength" : 58396,
            "uri" : "data:application/octet-stream;base64,"
        }
    ]
}
