{
    "asset" : {
        "generator" : "Khronos glTF Blender I/O v1.5.17",
        "version" : "2.0"
    },
    "scene" : 0,
    "scenes" : [
        {
            "name" : "Scene",
            "nodes" : [
                0
            ]
        }
    ],
    "nodes" : [
        {
            "mesh" : 0,
            "name" : "Cube.017",
            "rotation" : [
                0,
                0,
                -0.04465809091925621,
                0.9990023374557495
            ],
            "scale" : [
                0.3535793125629425,
                0.3357032239437103,
                0.3652731776237488
            ],
            "translation" : [
                0.29394543170928955,
                1.7282860279083252,
                0.010547876358032227
            ]
        }
    ],
    "materials" : [
        {
            "doubleSided" : true,
            "name" : "Material.043",
            "pbrMetallicRoughness" : {
                "baseColorTexture" : {
                    "index" : 0
                },
                "metallicFactor" : 0,
                "roughnessFactor" : 0.5
            }
        },
        {
            "doubleSided" : true,
            "name" : "Material.040",
            "pbrMetallicRoughness" : {
                "baseColorTexture" : {
                    "index" : 1
                },
                "metallicFactor" : 0,
                "roughnessFactor" : 0.5
            }
        },
        {
            "doubleSided" : true,
            "name" : "Material.041",
            "pbrMetallicRoughness" : {
                "baseColorFactor" : [
                    0.3140871524810791,
                    0.44393035769462585,
                    0.29681843519210815,
                    1
                ],
                "metallicFactor" : 0,
                "roughnessFactor" : 0.5
            }
        },
        {
            "doubleSided" : true,
            "name" : "Material.042",
            "pbrMetallicRoughness" : {
                "baseColorFactor" : [
                    0.28573355078697205,
                    0.48189952969551086,
                    0.49999991059303284,
                    1
                ],
                "metallicFactor" : 0,
                "roughnessFactor" : 0.5
            }
        },
        {
            "doubleSided" : true,
            "name" : "Material.035",
            "pbrMetallicRoughness" : {
                "baseColorFactor" : [
                    0.007213477976620197,
                    0.001584926270879805,
                    0.002035701647400856,
                    1
                ],
                "metallicFactor" : 0,
                "roughnessFactor" : 0.5
            }
        },
        {
            "doubleSided" : true,
            "name" : "Material.036",
            "pbrMetallicRoughness" : {
                "baseColorFactor" : [
                    0.007213477976620197,
                    0.001584926270879805,
                    0.002035701647400856,
                    1
                ],
                "metallicFactor" : 0,
                "roughnessFactor" : 0.5
            }
        },
        {
            "doubleSided" : true,
            "name" : "Material.037",
            "pbrMetallicRoughness" : {
                "baseColorFactor" : [
                    0.007213477976620197,
                    0.001584926270879805,
                    0.002035701647400856,
                    1
                ],
                "metallicFactor" : 0,
                "roughnessFactor" : 0.5
            }
        },
        {
            "doubleSided" : true,
            "name" : "Material.038",
            "pbrMetallicRoughness" : {
                "baseColorFactor" : [
                    0.007213477976620197,
                    0.001584926270879805,
                    0.002035701647400856,
                    1
                ],
                "metallicFactor" : 0,
                "roughnessFactor" : 0.5
            }
        },
        {
            "doubleSided" : true,
            "name" : "Material.039",
            "pbrMetallicRoughness" : {
                "baseColorFactor" : [
                    0.007213477976620197,
                    0.001584926270879805,
                    0.002035701647400856,
                    1
                ],
                "metallicFactor" : 0,
                "roughnessFactor" : 0.5
            }
        }
    ],
    "meshes" : [
        {
            "name" : "Cube.017",
            "primitives" : [
                {
                    "attributes" : {
                        "POSITION" : 0,
                        "NORMAL" : 1,
                        "TEXCOORD_0" : 2
                    },
                    "indices" : 3,
                    "material" : 0
                },
                {
                    "attributes" : {
                        "POSITION" : 4,
                        "NORMAL" : 5,
                        "TEXCOORD_0" : 6
                    },
                    "indices" : 7,
                    "material" : 1
                },
                {
                    "attributes" : {
                        "POSITION" : 8,
                        "NORMAL" : 9,
                        "TEXCOORD_0" : 10
                    },
                    "indices" : 11,
                    "material" : 2
                },
                {
                    "attributes" : {
                        "POSITION" : 12,
                        "NORMAL" : 13,
                        "TEXCOORD_0" : 14
                    },
                    "indices" : 15,
                    "material" : 3
                },
                {
                    "attributes" : {
                        "POSITION" : 16,
                        "NORMAL" : 17,
                        "TEXCOORD_0" : 18
                    },
                    "indices" : 19,
                    "material" : 4
                },
                {
                    "attributes" : {
                        "POSITION" : 20,
                        "NORMAL" : 21,
                        "TEXCOORD_0" : 22
                    },
                    "indices" : 23,
                    "material" : 5
                },
                {
                    "attributes" : {
                        "POSITION" : 24,
                        "NORMAL" : 25,
                        "TEXCOORD_0" : 26
                    },
                    "indices" : 27,
                    "material" : 6
                },
                {
                    "attributes" : {
                        "POSITION" : 28,
                        "NORMAL" : 29,
                        "TEXCOORD_0" : 30
                    },
                    "indices" : 31,
                    "material" : 7
                },
                {
                    "attributes" : {
                        "POSITION" : 32,
                        "NORMAL" : 33,
                        "TEXCOORD_0" : 34
                    },
                    "indices" : 35,
                    "material" : 8
                }
            ]
        }
    ],
    "textures" : [
        {
            "sampler" : 0,
            "source" : 0
        },
        {
            "sampler" : 0,
            "source" : 1
        }
    ],
    "images" : [
        {
            "bufferView" : 4,
            "mimeType" : "image/png",
            "name" : "jon face texture ps2"
        },
        {
            "bufferView" : 9,
            "mimeType" : "image/png",
            "name" : "Untitled"
        }
    ],
    "accessors" : [
        {
            "bufferView" : 0,
            "componentType" : 5126,
            "count" : 2074,
            "max" : [
                1.4862720966339111,
                1.6157828569412231,
                6.802834987640381
            ],
            "min" : [
                -1.4505139589309692,
                -12.652535438537598,
                -6.802834987640381
            ],
            "type" : "VEC3"
        },
        {
            "bufferView" : 1,
            "componentType" : 5126,
            "count" : 2074,
            "type" : "VEC3"
        },
        {
            "bufferView" : 2,
            "componentType" : 5126,
            "count" : 2074,
            "type" : "VEC2"
        },
        {
            "bufferView" : 3,
            "componentType" : 5123,
            "count" : 3114,
            "type" : "SCALAR"
        },
        {
            "bufferView" : 5,
            "componentType" : 5126,
            "count" : 152,
            "max" : [
                1.9589935541152954,
                -11.79811954498291,
                1.3130693435668945
            ],
            "min" : [
                -0.21610307693481445,
                -12.823293685913086,
                -1.2630558013916016
            ],
            "type" : "VEC3"
        },
        {
            "bufferView" : 6,
            "componentType" : 5126,
            "count" : 152,
            "type" : "VEC3"
        },
        {
            "bufferView" : 7,
            "componentType" : 5126,
            "count" : 152,
            "type" : "VEC2"
        },
        {
            "bufferView" : 8,
            "componentType" : 5123,
            "count" : 240,
            "type" : "SCALAR"
        },
        {
            "bufferView" : 10,
            "componentType" : 5126,
            "count" : 399,
            "max" : [
                0.6320164203643799,
                -4.126058578491211,
                1.5845403671264648
            ],
            "min" : [
                -1.1684786081314087,
                -12.08971881866455,
                -1.5508081912994385
            ],
            "type" : "VEC3"
        },
        {
            "bufferView" : 11,
            "componentType" : 5126,
            "count" : 399,
            "type" : "VEC3"
        },
        {
            "bufferView" : 12,
            "componentType" : 5126,
            "count" : 399,
            "type" : "VEC2"
        },
        {
            "bufferView" : 13,
            "componentType" : 5123,
            "count" : 591,
            "type" : "SCALAR"
        },
        {
            "bufferView" : 14,
            "componentType" : 5126,
            "count" : 671,
            "max" : [
                0.9363247156143188,
                -0.09510398656129837,
                5.319491863250732
            ],
            "min" : [
                -1.7140781879425049,
                -4.934885501861572,
                -5.301550388336182
            ],
            "type" : "VEC3"
        },
        {
            "bufferView" : 15,
            "componentType" : 5126,
            "count" : 671,
            "type" : "VEC3"
        },
        {
            "bufferView" : 16,
            "componentType" : 5126,
            "count" : 671,
            "type" : "VEC2"
        },
        {
            "bufferView" : 17,
            "componentType" : 5123,
            "count" : 1029,
            "type" : "SCALAR"
        },
        {
            "bufferView" : 18,
            "componentType" : 5126,
            "count" : 124,
            "max" : [
                -0.7596113085746765,
                1.5973410606384277,
                0.6990141272544861
            ],
            "min" : [
                -1.6529426574707031,
                -0.5724255442619324,
                -0.6858135461807251
            ],
            "type" : "VEC3"
        },
        {
            "bufferView" : 19,
            "componentType" : 5126,
            "count" : 124,
            "type" : "VEC3"
        },
        {
            "bufferView" : 20,
            "componentType" : 5126,
            "count" : 124,
            "type" : "VEC2"
        },
        {
            "bufferView" : 21,
            "componentType" : 5123,
            "count" : 192,
            "type" : "SCALAR"
        },
        {
            "bufferView" : 22,
            "componentType" : 5126,
            "count" : 92,
            "max" : [
                0.2957395613193512,
                1.7352930307388306,
                0.8548480868339539
            ],
            "min" : [
                -0.38040322065353394,
                -0.2286602258682251,
                -0.04848473519086838
            ],
            "type" : "VEC3"
        },
        {
            "bufferView" : 23,
            "componentType" : 5126,
            "count" : 92,
            "type" : "VEC3"
        },
        {
            "bufferView" : 24,
            "componentType" : 5126,
            "count" : 92,
            "type" : "VEC2"
        },
        {
            "bufferView" : 25,
            "componentType" : 5123,
            "count" : 138,
            "type" : "SCALAR"
        },
        {
            "bufferView" : 26,
            "componentType" : 5126,
            "count" : 80,
            "max" : [
                0.07562893629074097,
                1.8183529376983643,
                0.7768493294715881
            ],
            "min" : [
                -1.4235844612121582,
                -0.25441277027130127,
                -0.07505530118942261
            ],
            "type" : "VEC3"
        },
        {
            "bufferView" : 27,
            "componentType" : 5126,
            "count" : 80,
            "type" : "VEC3"
        },
        {
            "bufferView" : 28,
            "componentType" : 5126,
            "count" : 80,
            "type" : "VEC2"
        },
        {
            "bufferView" : 29,
            "componentType" : 5123,
            "count" : 120,
            "type" : "SCALAR"
        },
        {
            "bufferView" : 30,
            "componentType" : 5126,
            "count" : 92,
            "max" : [
                0.4429398775100708,
                1.7953976392745972,
                0.188365638256073
            ],
            "min" : [
                -0.3011048138141632,
                -0.05727577209472656,
                -0.7783970236778259
            ],
            "type" : "VEC3"
        },
        {
            "bufferView" : 31,
            "componentType" : 5126,
            "count" : 92,
            "type" : "VEC3"
        },
        {
            "bufferView" : 32,
            "componentType" : 5126,
            "count" : 92,
            "type" : "VEC2"
        },
        {
            "bufferView" : 33,
            "componentType" : 5123,
            "count" : 138,
            "type" : "SCALAR"
        },
        {
            "bufferView" : 34,
            "componentType" : 5126,
            "count" : 80,
            "max" : [
                0.12135744094848633,
                1.7700624465942383,
                0.15411531925201416
            ],
            "min" : [
                -1.2904987335205078,
                -0.33947646617889404,
                -0.7953447699546814
            ],
            "type" : "VEC3"
        },
        {
            "bufferView" : 35,
            "componentType" : 5126,
            "count" : 80,
            "type" : "VEC3"
        },
        {
            "bufferView" : 36,
            "componentType" : 5126,
            "count" : 80,
            "type" : "VEC2"
        },
        {
            "bufferView" : 37,
            "componentType" : 5123,
            "count" : 120,
            "type" : "SCALAR"
        }
    ],
    "bufferViews" : [
        {
            "buffer" : 0,
            "byteLength" : 24888,
            "byteOffset" : 0
        },
        {
            "buffer" : 0,
            "byteLength" : 24888,
            "byteOffset" : 24888
        },
        {
            "buffer" : 0,
            "byteLength" : 16592,
            "byteOffset" : 49776
        },
        {
            "buffer" : 0,
            "byteLength" : 6228,
            "byteOffset" : 66368
        },
        {
            "buffer" : 0,
            "byteLength" : 11946,
            "byteOffset" : 72596
        },
        {
            "buffer" : 0,
            "byteLength" : 1824,
            "byteOffset" : 84544
        },
        {
            "buffer" : 0,
            "byteLength" : 1824,
            "byteOffset" : 86368
        },
        {
            "buffer" : 0,
            "byteLength" : 1216,
            "byteOffset" : 88192
        },
        {
            "buffer" : 0,
            "byteLength" : 480,
            "byteOffset" : 89408
        },
        {
            "buffer" : 0,
            "byteLength" : 442067,
            "byteOffset" : 89888
        },
        {
            "buffer" : 0,
            "byteLength" : 4788,
            "byteOffset" : 531956
        },
        {
            "buffer" : 0,
            "byteLength" : 4788,
            "byteOffset" : 536744
        },
        {
            "buffer" : 0,
            "byteLength" : 3192,
            "byteOffset" : 541532
        },
        {
            "buffer" : 0,
            "byteLength" : 1182,
            "byteOffset" : 544724
        },
        {
            "buffer" : 0,
            "byteLength" : 8052,
            "byteOffset" : 545908
        },
        {
            "buffer" : 0,
            "byteLength" : 8052,
            "byteOffset" : 553960
        },
        {
            "buffer" : 0,
            "byteLength" : 5368,
            "byteOffset" : 562012
        },
        {
            "buffer" : 0,
            "byteLength" : 2058,
            "byteOffset" : 567380
        },
        {
            "buffer" : 0,
            "byteLength" : 1488,
            "byteOffset" : 569440
        },
        {
            "buffer" : 0,
            "byteLength" : 1488,
            "byteOffset" : 570928
        },
        {
            "buffer" : 0,
            "byteLength" : 992,
            "byteOffset" : 572416
        },
        {
            "buffer" : 0,
            "byteLength" : 384,
            "byteOffset" : 573408
        },
        {
            "buffer" : 0,
            "byteLength" : 1104,
            "byteOffset" : 573792
        },
        {
            "buffer" : 0,
            "byteLength" : 1104,
            "byteOffset" : 574896
        },
        {
            "buffer" : 0,
            "byteLength" : 736,
            "byteOffset" : 576000
        },
        {
            "buffer" : 0,
            "byteLength" : 276,
            "byteOffset" : 576736
        },
        {
            "buffer" : 0,
            "byteLength" : 960,
            "byteOffset" : 577012
        },
        {
            "buffer" : 0,
            "byteLength" : 960,
            "byteOffset" : 577972
        },
        {
            "buffer" : 0,
            "byteLength" : 640,
            "byteOffset" : 578932
        },
        {
            "buffer" : 0,
            "byteLength" : 240,
            "byteOffset" : 579572
        },
        {
            "buffer" : 0,
            "byteLength" : 1104,
            "byteOffset" : 579812
        },
        {
            "buffer" : 0,
            "byteLength" : 1104,
            "byteOffset" : 580916
        },
        {
            "buffer" : 0,
            "byteLength" : 736,
            "byteOffset" : 582020
        },
        {
            "buffer" : 0,
            "byteLength" : 276,
            "byteOffset" : 582756
        },
        {
            "buffer" : 0,
            "byteLength" : 960,
            "byteOffset" : 583032
        },
        {
            "buffer" : 0,
            "byteLength" : 960,
            "byteOffset" : 583992
        },
        {
            "buffer" : 0,
            "byteLength" : 640,
            "byteOffset" : 584952
        },
        {
            "buffer" : 0,
            "byteLength" : 240,
            "byteOffset" : 585592
        }
    ],
    "samplers" : [
        {
            "magFilter" : 9729,
            "minFilter" : 9987
        }
    ],
    "buffers" : [
        {
            "byteLength" : 585832,
            "uri" : "data:application/octet-stream;base64,"
        }
    ]
}
