<svg width="142" height="165" viewBox="0 0 142 165" fill="none" xmlns="http://www.w3.org/2000/svg">
<rect width="142" height="165" fill="white"/>
<path d="M63 123C63.4916 124.908 64.1786 126.357 65 128" stroke="black" stroke-width="1.5" stroke-linecap="square"/>
<path d="M49 123C48.0676 124.792 47.9802 125.257 46 126" stroke="black" stroke-width="1.5" stroke-linecap="square"/>
<path d="M60 125C60 126 60 127 60 128" stroke="black" stroke-width="1.5" stroke-linecap="square"/>
<path d="M55 125C54.6275 126.405 53.8333 129 52 129" stroke="black" stroke-width="1.5" stroke-linecap="square"/>
<path d="M88 122C88.8677 122.842 90.5181 124.036 91 125" stroke="black" stroke-width="1.5" stroke-linecap="square"/>
<path d="M86 124C86.5412 125.387 86.511 126.504 88 127" stroke="black" stroke-width="1.5" stroke-linecap="square"/>
<path d="M82 125C81.762 125.82 81.6149 126.707 81 127" stroke="black" stroke-width="1.5" stroke-linecap="square"/>
<path d="M79 123C78.4056 123.713 77.9416 124.552 77 125" stroke="black" stroke-width="1.5" stroke-linecap="square"/>
<path d="M72 46L89 49.0968L73.1333 56.8387L82.5778 58" stroke="black" stroke-width="1.5"/>
<path d="M92 36H98.5854L92 42L107 41.2" stroke="black" stroke-width="1.5"/>
<path d="M52.8816 54L9 112.563H25.7895V162H110.5L103.632 112.563H125L96.7632 90.507L91.4211 66.169H73.8684L76.5395 76.4366L52.8816 54Z" stroke="black" stroke-width="1.5"/>
<path d="M101 28L107.8 30.3333L103 33.4444L109 35" stroke="black" stroke-width="1.5"/>
<path d="M108 18L127.697 19.5556L112.167 32H133" stroke="black" stroke-width="1.5"/>
<path d="M76 120C76.9074 121.447 79.6556 124.269 83.3889 123.979C87.1222 123.69 89.3519 121.206 90 120" stroke="black" stroke-width="1.5"/>
<path d="M46 120C47.2346 121.667 50.5185 125 53.7778 125C57.037 125 63.2839 122.5 66 121.25" stroke="black" stroke-width="1.5"/>
</svg>
