<svg width="63" height="61" viewBox="0 0 63 61" fill="none" xmlns="http://www.w3.org/2000/svg">
<path d="M48.6787 57.75H43.6787C35.3514 57.75 37.4285 52.75 27.7322 41.1599C26.7559 40.1836 26.7559 38.6007 27.7322 37.6244C28.7085 36.6481 30.2915 36.6481 31.2678 37.6244L34.93 41.2866C35.9912 42.3478 37.7803 42.0556 38.4488 40.7121C38.6 40.4082 38.6787 40.0733 38.6787 39.7339V21.5C38.6787 20.1193 39.798 19 41.1787 19C42.5594 19 43.6787 20.1193 43.6787 21.5V32.75C43.6787 31.3693 44.798 30.25 46.1787 30.25C47.5594 30.25 48.6787 31.3693 48.6787 32.75V35.25C48.6787 33.8693 49.798 32.75 51.1787 32.75C52.5594 32.75 53.6787 33.8693 53.6787 35.25V37.75C53.6787 36.3693 54.798 35.25 56.1787 35.25C57.5594 35.25 58.6787 36.3693 58.6787 37.75V47.75C58.6787 53.2728 54.2016 57.75 48.6787 57.75Z" fill="white"/>
<path fill-rule="evenodd" clip-rule="evenodd" d="M41.2502 19.75C40.2837 19.75 39.5002 20.5335 39.5002 21.5V39.7339C39.5002 40.1893 39.3947 40.6385 39.1918 41.0462L38.5203 40.7121L39.1918 41.0462C38.295 42.8486 35.8948 43.2405 34.4712 41.817L30.809 38.1547C30.1256 37.4713 29.0175 37.4713 28.3341 38.1547C27.6507 38.8381 27.6507 39.9462 28.3341 40.6296L28.3576 40.6531L28.379 40.6787C32.0528 45.0701 34.081 48.5676 35.5754 51.1448C36.0689 51.9958 36.5042 52.7465 36.9214 53.3959C37.7662 54.711 38.5114 55.5777 39.4835 56.1378C40.4536 56.6968 41.7378 57 43.7502 57H48.7502C53.8589 57 58.0002 52.8586 58.0002 47.75V37.75C58.0002 36.7835 57.2167 36 56.2502 36C55.2837 36 54.5002 36.7835 54.5002 37.75V37.775V38.525H53.0002V37.775V37.75V35.25C53.0002 34.2835 52.2167 33.5 51.2502 33.5C50.2837 33.5 49.5002 34.2835 49.5002 35.25V37.75V38.5H48.0002V37.75V35.25V32.75C48.0002 31.7835 47.2167 31 46.2502 31C45.2837 31 44.5002 31.7835 44.5002 32.75V37.75V38.5H43.0002V37.75V32.75V21.5C43.0002 20.5335 42.2167 19.75 41.2502 19.75ZM44.5002 30.0109V21.5C44.5002 19.7051 43.0452 18.25 41.2502 18.25C39.4553 18.25 38.0002 19.7051 38.0002 21.5V39.7339C38.0002 39.9574 37.9484 40.1779 37.8489 40.378C37.4087 41.2627 36.2306 41.455 35.5319 40.7563L31.8696 37.0941C30.6004 35.8249 28.5426 35.8249 27.2734 37.0941C26.0126 38.3549 26.0043 40.3939 27.2485 41.665C30.8167 45.9339 32.744 49.2568 34.2321 51.8224C34.7435 52.704 35.203 53.4962 35.6593 54.2066C36.5482 55.5902 37.4512 56.698 38.7346 57.4375C40.0201 58.1782 41.599 58.5 43.7502 58.5H48.7502C54.6873 58.5 59.5002 53.6871 59.5002 47.75V37.75C59.5002 35.9551 58.0452 34.5 56.2502 34.5C55.6024 34.5 54.9988 34.6896 54.492 35.0162C54.3721 33.3304 52.9666 32 51.2502 32C50.6024 32 49.9988 32.1896 49.492 32.5162C49.3721 30.8304 47.9666 29.5 46.2502 29.5C45.6059 29.5 45.0054 29.6875 44.5002 30.0109Z" fill="black"/>
<path fill-rule="evenodd" clip-rule="evenodd" d="M19.644 3.21021L20.1743 3.74033L24.4468 8.01117L24.9773 8.54139L23.9168 9.60226L23.3864 9.07203L20.3941 6.08093V18.8958H33.2101L30.2196 15.9053L29.6893 15.3749L30.7499 14.3143L31.2803 14.8446L35.5511 19.1154L36.0814 19.6458L35.5511 20.1761L31.2803 24.4469L30.7499 24.9773L29.6893 23.9166L30.2196 23.3863L33.2101 20.3958H20.3941V33.2101L23.3846 30.2196L23.9149 29.6893L24.9756 30.7499L24.4453 31.2803L20.1744 35.5511L19.6441 36.0814L19.1138 35.5511L14.8446 31.2819L14.3143 30.7516L15.3749 29.6909L15.9053 30.2213L18.8941 33.2101V20.3958H6.08144L9.07194 23.3863L9.60227 23.9166L8.54161 24.9773L8.01128 24.4469L3.74045 20.1761L3.21012 19.6458L3.74045 19.1154L8.01128 14.8446L8.54161 14.3143L9.60227 15.3749L9.07194 15.9053L6.08144 18.8958H18.8941V6.08143L15.9036 9.07193L15.3733 9.60226L14.3126 8.5416L14.8429 8.01127L19.1138 3.74044L19.644 3.21021Z" fill="black"/>
</svg>
