<svg width="60" height="60" viewBox="0 0 60 60" fill="none" xmlns="http://www.w3.org/2000/svg">
<path d="M45.6787 56.75H40.6787C32.3514 56.75 34.4285 51.75 24.7322 40.1599C23.7559 39.1836 23.7559 37.6007 24.7322 36.6244C25.7085 35.6481 27.2915 35.6481 28.2678 36.6244L31.93 40.2866C32.9912 41.3478 34.7803 41.0556 35.4488 39.7121C35.6 39.4082 35.6787 39.0733 35.6787 38.7339V20.5C35.6787 19.1193 36.798 18 38.1787 18C39.5594 18 40.6787 19.1193 40.6787 20.5V31.75C40.6787 30.3693 41.798 29.25 43.1787 29.25C44.5594 29.25 45.6787 30.3693 45.6787 31.75V34.25C45.6787 32.8693 46.798 31.75 48.1787 31.75C49.5594 31.75 50.6787 32.8693 50.6787 34.25V36.75C50.6787 35.3693 51.798 34.25 53.1787 34.25C54.5594 34.25 55.6787 35.3693 55.6787 36.75V46.75C55.6787 52.2728 51.2016 56.75 45.6787 56.75Z" fill="white"/>
<path fill-rule="evenodd" clip-rule="evenodd" d="M38.2502 18.75C37.2837 18.75 36.5002 19.5335 36.5002 20.5V38.7339C36.5002 39.1893 36.3947 39.6385 36.1918 40.0462L35.5203 39.7121L36.1918 40.0462C35.295 41.8486 32.8948 42.2405 31.4712 40.817L27.809 37.1547C27.1256 36.4713 26.0175 36.4713 25.3341 37.1547C24.6507 37.8381 24.6507 38.9462 25.3341 39.6296L25.3576 39.6531L25.379 39.6787C29.0528 44.0701 31.081 47.5676 32.5754 50.1448C33.0689 50.9958 33.5042 51.7465 33.9214 52.3959C34.7662 53.711 35.5114 54.5777 36.4835 55.1378C37.4536 55.6968 38.7378 56 40.7502 56H45.7502C50.8589 56 55.0002 51.8586 55.0002 46.75V36.75C55.0002 35.7835 54.2167 35 53.2502 35C52.2837 35 51.5002 35.7835 51.5002 36.75V36.775V37.525H50.0002V36.775V36.75V34.25C50.0002 33.2835 49.2167 32.5 48.2502 32.5C47.2837 32.5 46.5002 33.2835 46.5002 34.25V36.75V37.5H45.0002V36.75V34.25V31.75C45.0002 30.7835 44.2167 30 43.2502 30C42.2837 30 41.5002 30.7835 41.5002 31.75V36.75V37.5H40.0002V36.75V31.75V20.5C40.0002 19.5335 39.2167 18.75 38.2502 18.75ZM41.5002 29.0109V20.5C41.5002 18.7051 40.0452 17.25 38.2502 17.25C36.4553 17.25 35.0002 18.7051 35.0002 20.5V38.7339C35.0002 38.9574 34.9484 39.1779 34.8489 39.378C34.4087 40.2627 33.2306 40.455 32.5319 39.7563L28.8696 36.0941C27.6004 34.8249 25.5426 34.8249 24.2734 36.0941C23.0126 37.3549 23.0043 39.3939 24.2485 40.665C27.8167 44.9339 29.744 48.2568 31.2321 50.8224C31.7435 51.704 32.203 52.4962 32.6593 53.2066C33.5482 54.5902 34.4512 55.698 35.7346 56.4375C37.0201 57.1782 38.599 57.5 40.7502 57.5H45.7502C51.6873 57.5 56.5002 52.6871 56.5002 46.75V36.75C56.5002 34.9551 55.0452 33.5 53.2502 33.5C52.6024 33.5 51.9988 33.6896 51.492 34.0162C51.3721 32.3304 49.9666 31 48.2502 31C47.6024 31 46.9988 31.1896 46.492 31.5162C46.3721 29.8304 44.9666 28.5 43.2502 28.5C42.6059 28.5 42.0054 28.6875 41.5002 29.0109Z" fill="black"/>
<path d="M48 4.71429V11.5714M48 11.5714H37.8824M48 11.5714L41.729 7.28571C37.8824 4.71429 32.4504 3 26.5 3C19.9313 3 14.0507 4.99644 10.107 8.14286M5 28.2857V21.4286M5 21.4286H15.1176M5 21.4286L11.271 25.7143C15.1176 28.2857 20.5496 30 26.5 30" stroke="black" stroke-width="1.5" stroke-linecap="square"/>
</svg>
