<svg width="60" height="60" viewBox="0 0 60 60" fill="none" xmlns="http://www.w3.org/2000/svg">
<path d="M51.5839 46.5585L47.2538 49.0585C40.0421 53.2221 39.3409 47.8535 25.1487 42.6643C23.815 42.3069 23.0235 40.9361 23.3809 39.6024C23.7382 38.2688 25.1091 37.4773 26.4428 37.8347L31.4455 39.1751C32.895 39.5635 34.2984 38.4159 34.2056 36.9182C34.1846 36.5794 34.0853 36.2501 33.9156 35.9561L24.7986 20.1651C24.1083 18.9693 24.518 17.4404 25.7137 16.75C26.9094 16.0596 28.4384 16.4693 29.1288 17.6651L34.7538 27.4079C34.0634 26.2121 34.4731 24.6831 35.6688 23.9928C36.8645 23.3024 38.3935 23.7121 39.0839 24.9079L40.3339 27.0729C39.6435 25.8772 40.0532 24.3482 41.2489 23.6579C42.4447 22.9675 43.9737 23.3772 44.664 24.5729L45.914 26.738C45.2237 25.5422 45.6333 24.0133 46.8291 23.3229C48.0248 22.6326 49.5538 23.0422 50.2441 24.238L55.2441 32.8982C58.0056 37.6812 56.3668 43.7971 51.5839 46.5585Z" fill="white"/>
<path d="M45.914 26.738C45.2237 25.5422 45.6333 24.0133 46.8291 23.3229C48.0248 22.6326 49.5538 23.0422 50.2441 24.238L55.2441 32.8982C58.0056 37.6812 56.3668 43.7971 51.5839 46.5585L47.2538 49.0585C40.0421 53.2221 39.3409 47.8535 25.1487 42.6643C23.815 42.3069 23.0235 40.9361 23.3809 39.6024C23.7382 38.2688 25.1091 37.4773 26.4428 37.8347L31.4455 39.1751C32.895 39.5635 34.2984 38.4159 34.2056 36.9182C34.1846 36.5794 34.0853 36.2501 33.9156 35.9561L24.7986 20.1651C24.1083 18.9693 24.518 17.4404 25.7137 16.75C26.9094 16.0596 28.4384 16.4693 29.1288 17.6651L34.7538 27.4079M45.914 26.738L44.664 24.5729C43.9737 23.3772 42.4447 22.9675 41.2489 23.6579C40.0532 24.3482 39.6435 25.8772 40.3339 27.0729M45.914 26.738L45.9265 26.7596M40.3339 27.0729L41.5839 29.238M40.3339 27.0729L39.0839 24.9079C38.3935 23.7121 36.8645 23.3024 35.6688 23.9928C34.4731 24.6831 34.0634 26.2121 34.7538 27.4079M34.7538 27.4079L37.2538 31.738" stroke="black" stroke-width="1.5" stroke-linecap="square"/>
<path d="M8.27083 43.75L4 39.4792M8.27083 43.75L12.5417 39.4792M8.27083 43.75L8.27083 25L8.27083 13M8.27083 13L4 17.2708M8.27083 13L12.5417 17.2708" stroke="black" stroke-width="1.5" stroke-linecap="square"/>
</svg>
