<svg width="1465" height="970" viewBox="0 0 1465 970" fill="none" xmlns="http://www.w3.org/2000/svg">
<g clip-path="url(#clip0)">
<rect width="1465" height="970" fill="white"/>
<line x1="-985.293" y1="3.93907" x2="541.872" y2="1531.1" stroke="#FF0000" stroke-width="2"/>
<line x1="-965.293" y1="3.30266" x2="561.872" y2="1530.47" stroke="#FF0000" stroke-width="2"/>
<line x1="-945.293" y1="2.66618" x2="581.872" y2="1529.83" stroke="#FF0000" stroke-opacity="0.4" stroke-width="2"/>
<line x1="-925.293" y1="2.02971" x2="601.872" y2="1529.19" stroke="#FF0000" stroke-opacity="0.4" stroke-width="2"/>
<line x1="-905.293" y1="1.3933" x2="621.872" y2="1528.56" stroke="#FF0000" stroke-opacity="0.4" stroke-width="2"/>
<line x1="-885.293" y1="0.756883" x2="641.872" y2="1527.92" stroke="#FF0000" stroke-opacity="0.4" stroke-width="2"/>
<line x1="-865.293" y1="0.120408" x2="661.872" y2="1527.29" stroke="#FF0000" stroke-opacity="0.4" stroke-width="2"/>
<line x1="-845.293" y1="-0.516067" x2="681.872" y2="1526.65" stroke="#FF0000" stroke-opacity="0.4" stroke-width="2"/>
<line x1="-825.293" y1="-1.15248" x2="701.872" y2="1526.01" stroke="#FF0000" stroke-opacity="0.4" stroke-width="2"/>
<line x1="-805.293" y1="-1.78889" x2="721.872" y2="1525.38" stroke="#FF0000" stroke-opacity="0.4" stroke-width="2"/>
<line x1="-785.293" y1="-2.42537" x2="741.872" y2="1524.74" stroke="#FF0000" stroke-opacity="0.4" stroke-width="2"/>
<line x1="-765.293" y1="-3.06184" x2="761.872" y2="1524.1" stroke="#FF0000" stroke-opacity="0.4" stroke-width="2"/>
<line x1="-745.293" y1="-3.69826" x2="781.872" y2="1523.47" stroke="#FF0000" stroke-opacity="0.4" stroke-width="2"/>
<line x1="-725.293" y1="-4.33467" x2="801.872" y2="1522.83" stroke="#FF0000" stroke-opacity="0.4" stroke-width="2"/>
<line x1="-705.293" y1="-4.97114" x2="821.872" y2="1522.19" stroke="#FF0000" stroke-opacity="0.4" stroke-width="2"/>
<line x1="-685.293" y1="-5.60762" x2="841.872" y2="1521.56" stroke="#FF0000" stroke-opacity="0.4" stroke-width="2"/>
<line x1="-665.293" y1="-6.24403" x2="861.872" y2="1520.92" stroke="#FF0000" stroke-opacity="0.4" stroke-width="2"/>
<line x1="-645.293" y1="-6.88045" x2="881.872" y2="1520.28" stroke="#FF0000" stroke-opacity="0.4" stroke-width="2"/>
<line x1="-625.293" y1="-7.51692" x2="901.872" y2="1519.65" stroke="#FF0000" stroke-opacity="0.4" stroke-width="2"/>
<line x1="-605.293" y1="-8.1534" x2="921.872" y2="1519.01" stroke="#FF0000" stroke-opacity="0.4" stroke-width="2"/>
<line x1="-585.293" y1="-8.78981" x2="941.872" y2="1518.37" stroke="#FF0000" stroke-opacity="0.4" stroke-width="2"/>
<line x1="-565.293" y1="-9.42622" x2="961.872" y2="1517.74" stroke="#FF0000" stroke-opacity="0.4" stroke-width="2"/>
<line x1="-545.293" y1="-10.0627" x2="981.872" y2="1517.1" stroke="#FF0000" stroke-opacity="0.4" stroke-width="2"/>
<line x1="-525.293" y1="-10.6992" x2="1001.87" y2="1516.47" stroke="#FF0000" stroke-opacity="0.4" stroke-width="2"/>
<line x1="-505.293" y1="-11.3356" x2="1021.87" y2="1515.83" stroke="#FF0000" stroke-opacity="0.4" stroke-width="2"/>
<line x1="-485.293" y1="-11.972" x2="1041.87" y2="1515.19" stroke="#FF0000" stroke-opacity="0.4" stroke-width="2"/>
<line x1="-465.293" y1="-12.6085" x2="1061.87" y2="1514.56" stroke="#FF0000" stroke-opacity="0.4" stroke-width="2"/>
<line x1="-445.293" y1="-13.2449" x2="1081.87" y2="1513.92" stroke="#FF0000" stroke-opacity="0.4" stroke-width="2"/>
<line x1="-425.293" y1="-13.8814" x2="1101.87" y2="1513.28" stroke="#FF0000" stroke-opacity="0.4" stroke-width="2"/>
<line x1="-405.293" y1="-14.5178" x2="1121.87" y2="1512.65" stroke="#FF0000" stroke-opacity="0.4" stroke-width="2"/>
<line x1="-385.293" y1="-15.1543" x2="1141.87" y2="1512.01" stroke="#FF0000" stroke-opacity="0.4" stroke-width="2"/>
<line x1="-365.293" y1="-15.7907" x2="1161.87" y2="1511.37" stroke="#FF0000" stroke-opacity="0.4" stroke-width="2"/>
<line x1="-345.293" y1="-16.4271" x2="1181.87" y2="1510.74" stroke="#FF0000" stroke-opacity="0.4" stroke-width="2"/>
<line x1="-325.293" y1="-17.0636" x2="1201.87" y2="1510.1" stroke="#FF0000" stroke-opacity="0.4" stroke-width="2"/>
<line x1="-305.293" y1="-17.7" x2="1221.87" y2="1509.46" stroke="#FF0000" stroke-opacity="0.4" stroke-width="2"/>
<line x1="-285.293" y1="-18.3365" x2="1241.87" y2="1508.83" stroke="#FF0000" stroke-opacity="0.4" stroke-width="2"/>
<line x1="-265.293" y1="-18.9729" x2="1261.87" y2="1508.19" stroke="#FF0000" stroke-opacity="0.4" stroke-width="2"/>
<line x1="-245.293" y1="-19.6093" x2="1281.87" y2="1507.56" stroke="#FF0000" stroke-opacity="0.4" stroke-width="2"/>
<line x1="-225.293" y1="-20.2458" x2="1301.87" y2="1506.92" stroke="#FF0000" stroke-opacity="0.4" stroke-width="2"/>
<line x1="-205.293" y1="-20.8823" x2="1321.87" y2="1506.28" stroke="#FF0000" stroke-opacity="0.4" stroke-width="2"/>
<line x1="-185.293" y1="-21.5187" x2="1341.87" y2="1505.65" stroke="#FF0000" stroke-opacity="0.4" stroke-width="2"/>
<line x1="-165.293" y1="-22.1551" x2="1361.87" y2="1505.01" stroke="#FF0000" stroke-opacity="0.4" stroke-width="2"/>
<line x1="-145.293" y1="-22.7916" x2="1381.87" y2="1504.37" stroke="#FF0000" stroke-opacity="0.4" stroke-width="2"/>
<line x1="-125.293" y1="-23.4281" x2="1401.87" y2="1503.74" stroke="#FF0000" stroke-opacity="0.4" stroke-width="2"/>
<line x1="-105.293" y1="-24.0645" x2="1421.87" y2="1503.1" stroke="#FF0000" stroke-opacity="0.4" stroke-width="2"/>
<line x1="-85.2929" y1="-24.7009" x2="1441.87" y2="1502.46" stroke="#FF0000" stroke-opacity="0.4" stroke-width="2"/>
<line x1="-65.2929" y1="-25.3374" x2="1461.87" y2="1501.83" stroke="#FF0000" stroke-opacity="0.4" stroke-width="2"/>
<line x1="-45.2929" y1="-25.9738" x2="1481.87" y2="1501.19" stroke="#FF0000" stroke-opacity="0.4" stroke-width="2"/>
<line x1="-25.2929" y1="-26.6102" x2="1501.87" y2="1500.55" stroke="#FF0000" stroke-opacity="0.4" stroke-width="2"/>
<line x1="-5.29289" y1="-27.2467" x2="1521.87" y2="1499.92" stroke="#FF0000" stroke-opacity="0.4" stroke-width="2"/>
<line x1="14.7071" y1="-27.8831" x2="1541.87" y2="1499.28" stroke="#FF0000" stroke-opacity="0.4" stroke-width="2"/>
<line x1="34.7071" y1="-28.5196" x2="1561.87" y2="1498.65" stroke="#FF0000" stroke-opacity="0.4" stroke-width="2"/>
<line x1="54.7071" y1="-29.156" x2="1581.87" y2="1498.01" stroke="#FF0000" stroke-opacity="0.4" stroke-width="2"/>
<line x1="74.7071" y1="-29.7924" x2="1601.87" y2="1497.37" stroke="#FF0000" stroke-opacity="0.4" stroke-width="2"/>
<line x1="94.7071" y1="-30.4289" x2="1621.87" y2="1496.74" stroke="#FF0000" stroke-opacity="0.4" stroke-width="2"/>
<line x1="114.707" y1="-31.0654" x2="1641.87" y2="1496.1" stroke="#FF0000" stroke-opacity="0.4" stroke-width="2"/>
<line x1="134.707" y1="-31.7018" x2="1661.87" y2="1495.46" stroke="#FF0000" stroke-opacity="0.4" stroke-width="2"/>
<line x1="154.707" y1="-32.3382" x2="1681.87" y2="1494.83" stroke="#FF0000" stroke-opacity="0.4" stroke-width="2"/>
<line x1="174.707" y1="-32.9747" x2="1701.87" y2="1494.19" stroke="#FF0000" stroke-opacity="0.4" stroke-width="2"/>
<line x1="194.707" y1="-33.6112" x2="1721.87" y2="1493.55" stroke="#FF0000" stroke-opacity="0.4" stroke-width="2"/>
<line x1="214.707" y1="-34.2476" x2="1741.87" y2="1492.92" stroke="#FF0000" stroke-opacity="0.4" stroke-width="2"/>
<line x1="234.707" y1="-34.884" x2="1761.87" y2="1492.28" stroke="#FF0000" stroke-opacity="0.4" stroke-width="2"/>
<line x1="254.707" y1="-35.5205" x2="1781.87" y2="1491.64" stroke="#FF0000" stroke-opacity="0.4" stroke-width="2"/>
<line x1="274.707" y1="-36.1569" x2="1801.87" y2="1491.01" stroke="#FF0000" stroke-opacity="0.4" stroke-width="2"/>
<line x1="294.707" y1="-36.7933" x2="1821.87" y2="1490.37" stroke="#FF0000" stroke-opacity="0.4" stroke-width="2"/>
<line x1="314.707" y1="-37.4298" x2="1841.87" y2="1489.73" stroke="#FF0000" stroke-opacity="0.4" stroke-width="2"/>
<line x1="334.707" y1="-38.0662" x2="1861.87" y2="1489.1" stroke="#FF0000" stroke-opacity="0.4" stroke-width="2"/>
<line x1="354.707" y1="-38.7027" x2="1881.87" y2="1488.46" stroke="#FF0000" stroke-opacity="0.4" stroke-width="2"/>
<line x1="374.707" y1="-39.3391" x2="1901.87" y2="1487.83" stroke="#FF0000" stroke-opacity="0.4" stroke-width="2"/>
<line x1="394.707" y1="-39.9755" x2="1921.87" y2="1487.19" stroke="#FF0000" stroke-opacity="0.4" stroke-width="2"/>
<line x1="414.707" y1="-40.612" x2="1941.87" y2="1486.55" stroke="#FF0000" stroke-opacity="0.4" stroke-width="2"/>
<line x1="434.707" y1="-41.2485" x2="1961.87" y2="1485.92" stroke="#FF0000" stroke-opacity="0.4" stroke-width="2"/>
<line x1="454.707" y1="-41.8849" x2="1981.87" y2="1485.28" stroke="#FF0000" stroke-opacity="0.4" stroke-width="2"/>
<line x1="474.707" y1="-42.5213" x2="2001.87" y2="1484.64" stroke="#FF0000" stroke-opacity="0.4" stroke-width="2"/>
<line x1="494.707" y1="-43.1578" x2="2021.87" y2="1484.01" stroke="#FF0000" stroke-opacity="0.4" stroke-width="2"/>
<line x1="514.707" y1="-43.7943" x2="2041.87" y2="1483.37" stroke="#FF0000" stroke-opacity="0.4" stroke-width="2"/>
<line x1="534.707" y1="-44.4307" x2="2061.87" y2="1482.73" stroke="#FF0000" stroke-opacity="0.4" stroke-width="2"/>
<line x1="554.707" y1="-45.0671" x2="2081.87" y2="1482.1" stroke="#FF0000" stroke-opacity="0.4" stroke-width="2"/>
<line x1="574.707" y1="-45.7036" x2="2101.87" y2="1481.46" stroke="#FF0000" stroke-opacity="0.4" stroke-width="2"/>
<line x1="594.707" y1="-46.34" x2="2121.87" y2="1480.82" stroke="#FF0000" stroke-opacity="0.4" stroke-width="2"/>
<line x1="614.707" y1="-46.9765" x2="2141.87" y2="1480.19" stroke="#FF0000" stroke-opacity="0.4" stroke-width="2"/>
<line x1="634.707" y1="-47.6129" x2="2161.87" y2="1479.55" stroke="#FF0000" stroke-opacity="0.4" stroke-width="2"/>
<line x1="654.707" y1="-48.2493" x2="2181.87" y2="1478.92" stroke="#FF0000" stroke-opacity="0.4" stroke-width="2"/>
<line x1="674.707" y1="-48.8858" x2="2201.87" y2="1478.28" stroke="#FF0000" stroke-opacity="0.4" stroke-width="2"/>
<line x1="694.707" y1="-49.5222" x2="2221.87" y2="1477.64" stroke="#FF0000" stroke-opacity="0.4" stroke-width="2"/>
<line x1="714.707" y1="-50.1586" x2="2241.87" y2="1477.01" stroke="#FF0000" stroke-opacity="0.4" stroke-width="2"/>
<line x1="734.707" y1="-50.7951" x2="2261.87" y2="1476.37" stroke="#FF0000" stroke-opacity="0.4" stroke-width="2"/>
<line x1="754.707" y1="-51.4316" x2="2281.87" y2="1475.73" stroke="#FF0000" stroke-opacity="0.4" stroke-width="2"/>
<line x1="774.707" y1="-52.068" x2="2301.87" y2="1475.1" stroke="#FF0000" stroke-opacity="0.4" stroke-width="2"/>
<line x1="794.707" y1="-52.7044" x2="2321.87" y2="1474.46" stroke="#FF0000" stroke-opacity="0.4" stroke-width="2"/>
<line x1="814.707" y1="-53.3409" x2="2341.87" y2="1473.82" stroke="#FF0000" stroke-opacity="0.4" stroke-width="2"/>
<line x1="834.707" y1="-53.9774" x2="2361.87" y2="1473.19" stroke="#FF0000" stroke-opacity="0.4" stroke-width="2"/>
<line x1="854.707" y1="-54.6138" x2="2381.87" y2="1472.55" stroke="#FF0000" stroke-opacity="0.4" stroke-width="2"/>
<line x1="874.707" y1="-55.2502" x2="2401.87" y2="1471.91" stroke="#FF0000" stroke-opacity="0.4" stroke-width="2"/>
<line x1="894.707" y1="-55.8867" x2="2421.87" y2="1471.28" stroke="#FF0000" stroke-opacity="0.4" stroke-width="2"/>
<line x1="914.707" y1="-56.5231" x2="2441.87" y2="1470.64" stroke="#FF0000" stroke-opacity="0.4" stroke-width="2"/>
<line x1="934.707" y1="-57.1596" x2="2461.87" y2="1470.01" stroke="#FF0000" stroke-opacity="0.4" stroke-width="2"/>
<line x1="954.707" y1="-57.796" x2="2481.87" y2="1469.37" stroke="#FF0000" stroke-opacity="0.4" stroke-width="2"/>
<line x1="974.707" y1="-58.4324" x2="2501.87" y2="1468.73" stroke="#FF0000" stroke-opacity="0.4" stroke-width="2"/>
<line x1="994.707" y1="-59.0689" x2="2521.87" y2="1468.1" stroke="#FF0000" stroke-opacity="0.4" stroke-width="2"/>
<line x1="1014.71" y1="-59.7053" x2="2541.87" y2="1467.46" stroke="#FF0000" stroke-opacity="0.4" stroke-width="2"/>
<line x1="1034.71" y1="-60.3418" x2="2561.87" y2="1466.82" stroke="#FF0000" stroke-opacity="0.4" stroke-width="2"/>
<line x1="1054.71" y1="-60.9782" x2="2581.87" y2="1466.19" stroke="#FF0000" stroke-opacity="0.4" stroke-width="2"/>
<line x1="1074.71" y1="-61.6147" x2="2601.87" y2="1465.55" stroke="#FF0000" stroke-opacity="0.4" stroke-width="2"/>
<line x1="1094.71" y1="-62.2511" x2="2621.87" y2="1464.91" stroke="#FF0000" stroke-opacity="0.4" stroke-width="2"/>
<line x1="1114.71" y1="-62.8875" x2="2641.87" y2="1464.28" stroke="#FF0000" stroke-opacity="0.4" stroke-width="2"/>
<line x1="1134.71" y1="-63.524" x2="2661.87" y2="1463.64" stroke="#FF0000" stroke-opacity="0.4" stroke-width="2"/>
<line x1="1154.71" y1="-64.1605" x2="2681.87" y2="1463" stroke="#FF0000" stroke-opacity="0.4" stroke-width="2"/>
<line x1="1174.71" y1="-64.7969" x2="2701.87" y2="1462.37" stroke="#FF0000" stroke-opacity="0.4" stroke-width="2"/>
<line x1="1194.71" y1="-65.4333" x2="2721.87" y2="1461.73" stroke="#FF0000" stroke-opacity="0.4" stroke-width="2"/>
<line x1="1214.71" y1="-66.0698" x2="2741.87" y2="1461.09" stroke="#FF0000" stroke-opacity="0.4" stroke-width="2"/>
<line x1="1234.71" y1="-66.7063" x2="2761.87" y2="1460.46" stroke="#FF0000" stroke-opacity="0.4" stroke-width="2"/>
<line x1="1254.71" y1="-67.3427" x2="2781.87" y2="1459.82" stroke="#FF0000" stroke-opacity="0.4" stroke-width="2"/>
<line x1="1274.71" y1="-67.9791" x2="2801.87" y2="1459.19" stroke="#FF0000" stroke-opacity="0.4" stroke-width="2"/>
<line x1="1294.71" y1="-68.6156" x2="2821.87" y2="1458.55" stroke="#FF0000" stroke-opacity="0.4" stroke-width="2"/>
<line x1="1314.71" y1="-69.252" x2="2841.87" y2="1457.91" stroke="#FF0000" stroke-opacity="0.4" stroke-width="2"/>
<line x1="1334.71" y1="-69.8884" x2="2861.87" y2="1457.28" stroke="#FF0000" stroke-opacity="0.4" stroke-width="2"/>
<line x1="1354.71" y1="-70.5249" x2="2881.87" y2="1456.64" stroke="#FF0000" stroke-opacity="0.4" stroke-width="2"/>
<line x1="1374.71" y1="-71.1613" x2="2901.87" y2="1456" stroke="#FF0000" stroke-opacity="0.4" stroke-width="2"/>
<line x1="1394.71" y1="-71.7978" x2="2921.87" y2="1455.37" stroke="#FF0000" stroke-width="2"/>
<line x1="1414.71" y1="-72.4342" x2="2941.87" y2="1454.73" stroke="#FF0000" stroke-width="2"/>
<line x1="1436.71" y1="-73.0706" x2="2963.87" y2="1454.09" stroke="#FF0000" stroke-width="2"/>
<line x1="1456.71" y1="-73.7071" x2="2983.87" y2="1453.46" stroke="#FF0000" stroke-width="2"/>
</g>
<defs>
<clipPath id="clip0">
<rect width="1465" height="970" fill="white"/>
</clipPath>
</defs>
</svg>
