{
    "asset" : {
        "generator" : "Khronos glTF Blender I/O v1.5.17",
        "version" : "2.0"
    },
    "scene" : 0,
    "scenes" : [
        {
            "name" : "Scene",
            "nodes" : [
                0
            ]
        }
    ],
    "nodes" : [
        {
            "mesh" : 0,
            "name" : "node-0.001",
            "translation" : [
                -3.6844279766082764,
                0,
                0
            ]
        }
    ],
    "materials" : [
        {
            "doubleSided" : true,
            "name" : "Material.053",
            "pbrMetallicRoughness" : {
                "baseColorFactor" : [
                    0.4622451961040497,
                    0.03280598297715187,
                    0.006864908616989851,
                    1
                ],
                "metallicFactor" : 0,
                "roughnessFactor" : 0.9642857313156128
            }
        }
    ],
    "meshes" : [
        {
            "name" : "buffer-0-mesh-0.001",
            "primitives" : [
                {
                    "attributes" : {
                        "POSITION" : 0,
                        "NORMAL" : 1,
                        "TEXCOORD_0" : 2
                    },
                    "indices" : 3,
                    "material" : 0
                }
            ]
        }
    ],
    "accessors" : [
        {
            "bufferView" : 0,
            "componentType" : 5126,
            "count" : 708,
            "max" : [
                0.2619888186454773,
                1.2533950805664062,
                1.7351402044296265
            ],
            "min" : [
                -1.0348739624023438,
                -0.11656618118286133,
                -1.6900429725646973
            ],
            "type" : "VEC3"
        },
        {
            "bufferView" : 1,
            "componentType" : 5126,
            "count" : 708,
            "type" : "VEC3"
        },
        {
            "bufferView" : 2,
            "componentType" : 5126,
            "count" : 708,
            "type" : "VEC2"
        },
        {
            "bufferView" : 3,
            "componentType" : 5123,
            "count" : 708,
            "type" : "SCALAR"
        }
    ],
    "bufferViews" : [
        {
            "buffer" : 0,
            "byteLength" : 8496,
            "byteOffset" : 0
        },
        {
            "buffer" : 0,
            "byteLength" : 8496,
            "byteOffset" : 8496
        },
        {
            "buffer" : 0,
            "byteLength" : 5664,
            "byteOffset" : 16992
        },
        {
            "buffer" : 0,
            "byteLength" : 1416,
            "byteOffset" : 22656
        }
    ],
    "buffers" : [
        {
            "byteLength" : 24072,
            "uri" : "data:application/octet-stream;base64,"
        }
    ]
}
