{
    "asset" : {
        "generator" : "Khronos glTF Blender I/O v1.5.17",
        "version" : "2.0"
    },
    "scene" : 0,
    "scenes" : [
        {
            "name" : "Scene",
            "nodes" : [
                5,
                6,
                7,
                8
            ]
        }
    ],
    "nodes" : [
        {
            "mesh" : 0,
            "name" : "bed2_Matress_0"
        },
        {
            "mesh" : 1,
            "name" : "bed2_wood_0"
        },
        {
            "children" : [
                0,
                1
            ],
            "name" : "bed2",
            "rotation" : [
                -0.7071068286895752,
                0,
                0,
                0.7071067094802856
            ],
            "scale" : [
                99.99974060058594,
                99.99995422363281,
                100.00006866455078
            ]
        },
        {
            "children" : [
                2
            ],
            "name" : "RootNode"
        },
        {
            "children" : [
                3
            ],
            "name" : "1498955f9228414aadeffd14b997652a.fbx",
            "rotation" : [
                0.7071068286895752,
                0,
                0,
                0.7071068286895752
            ]
        },
        {
            "children" : [
                4
            ],
            "name" : "Sketchfab_model",
            "rotation" : [
                -0.7071068286895752,
                0,
                0,
                0.7071068286895752
            ]
        },
        {
            "mesh" : 2,
            "name" : "bed2_Matress_0.001",
            "rotation" : [
                -0.7071068286895752,
                0,
                0,
                0.7071068286895752
            ],
            "scale" : [
                81.40031433105469,
                104.73030853271484,
                136.58030700683594
            ],
            "translation" : [
                22.568979263305664,
                -0.233428955078125,
                0
            ]
        },
        {
            "mesh" : 3,
            "name" : "Cube.001",
            "scale" : [
                19.137149810791016,
                10.130263328552246,
                32.82656478881836
            ],
            "translation" : [
                -79.87173461914062,
                15.229909896850586,
                -35.50895309448242
            ]
        },
        {
            "mesh" : 4,
            "name" : "Cube.002",
            "scale" : [
                19.137149810791016,
                10.130263328552246,
                32.82656478881836
            ],
            "translation" : [
                -79.87173461914062,
                15.229909896850586,
                35.75197982788086
            ]
        }
    ],
    "materials" : [
        {
            "doubleSided" : true,
            "name" : "Material.001",
            "pbrMetallicRoughness" : {
                "baseColorFactor" : [
                    0.8000000715255737,
                    0.6962926387786865,
                    0.7824762463569641,
                    1
                ],
                "metallicFactor" : 0,
                "roughnessFactor" : 0.5
            }
        },
        {
            "doubleSided" : true,
            "name" : "wood",
            "pbrMetallicRoughness" : {
                "baseColorFactor" : [
                    0.5906190276145935,
                    0.37123799324035645,
                    0.16826899349689484,
                    1
                ],
                "metallicFactor" : 0
            }
        },
        {
            "doubleSided" : true,
            "name" : "Material.004",
            "pbrMetallicRoughness" : {
                "baseColorFactor" : [
                    0.10573971271514893,
                    0.4790264666080475,
                    0.07788598537445068,
                    1
                ],
                "metallicFactor" : 0,
                "roughnessFactor" : 0.5
            }
        }
    ],
    "meshes" : [
        {
            "name" : "bed2_Matress_0",
            "primitives" : [
                {
                    "attributes" : {
                        "POSITION" : 0,
                        "NORMAL" : 1,
                        "TEXCOORD_0" : 2
                    },
                    "indices" : 3,
                    "material" : 0
                }
            ]
        },
        {
            "name" : "bed2_wood_0",
            "primitives" : [
                {
                    "attributes" : {
                        "POSITION" : 4,
                        "NORMAL" : 5,
                        "TEXCOORD_0" : 6
                    },
                    "indices" : 7,
                    "material" : 1
                }
            ]
        },
        {
            "name" : "bed2_Matress_0.002",
            "primitives" : [
                {
                    "attributes" : {
                        "POSITION" : 8,
                        "NORMAL" : 9,
                        "TEXCOORD_0" : 10
                    },
                    "indices" : 3,
                    "material" : 2
                }
            ]
        },
        {
            "name" : "Cube.002",
            "primitives" : [
                {
                    "attributes" : {
                        "POSITION" : 11,
                        "NORMAL" : 12,
                        "TEXCOORD_0" : 13
                    },
                    "indices" : 14
                }
            ]
        },
        {
            "name" : "Cube.003",
            "primitives" : [
                {
                    "attributes" : {
                        "POSITION" : 15,
                        "NORMAL" : 16,
                        "TEXCOORD_0" : 17
                    },
                    "indices" : 14
                }
            ]
        }
    ],
    "accessors" : [
        {
            "bufferView" : 0,
            "componentType" : 5126,
            "count" : 120,
            "max" : [
                1.0046617984771729,
                0.7952926158905029,
                0.14537128806114197
            ],
            "min" : [
                -1.0090004205703735,
                -0.7952926754951477,
                -0.002336061093956232
            ],
            "type" : "VEC3"
        },
        {
            "bufferView" : 1,
            "componentType" : 5126,
            "count" : 120,
            "type" : "VEC3"
        },
        {
            "bufferView" : 2,
            "componentType" : 5126,
            "count" : 120,
            "type" : "VEC2"
        },
        {
            "bufferView" : 3,
            "componentType" : 5123,
            "count" : 132,
            "type" : "SCALAR"
        },
        {
            "bufferView" : 4,
            "componentType" : 5126,
            "count" : 114,
            "max" : [
                1.053976058959961,
                0.8400003910064697,
                0.6176620721817017
            ],
            "min" : [
                -1.0560293197631836,
                -0.8400004506111145,
                -0.38233619928359985
            ],
            "type" : "VEC3"
        },
        {
            "bufferView" : 5,
            "componentType" : 5126,
            "count" : 114,
            "type" : "VEC3"
        },
        {
            "bufferView" : 6,
            "componentType" : 5126,
            "count" : 114,
            "type" : "VEC2"
        },
        {
            "bufferView" : 7,
            "componentType" : 5123,
            "count" : 114,
            "type" : "SCALAR"
        },
        {
            "bufferView" : 8,
            "componentType" : 5126,
            "count" : 120,
            "max" : [
                1.0046617984771729,
                0.7952926158905029,
                0.14537128806114197
            ],
            "min" : [
                -1.0090004205703735,
                -0.7952926754951477,
                -0.002336061093956232
            ],
            "type" : "VEC3"
        },
        {
            "bufferView" : 9,
            "componentType" : 5126,
            "count" : 120,
            "type" : "VEC3"
        },
        {
            "bufferView" : 10,
            "componentType" : 5126,
            "count" : 120,
            "type" : "VEC2"
        },
        {
            "bufferView" : 11,
            "componentType" : 5126,
            "count" : 216,
            "max" : [
                1,
                1,
                1
            ],
            "min" : [
                -1,
                -1,
                -1
            ],
            "type" : "VEC3"
        },
        {
            "bufferView" : 12,
            "componentType" : 5126,
            "count" : 216,
            "type" : "VEC3"
        },
        {
            "bufferView" : 13,
            "componentType" : 5126,
            "count" : 216,
            "type" : "VEC2"
        },
        {
            "bufferView" : 14,
            "componentType" : 5123,
            "count" : 324,
            "type" : "SCALAR"
        },
        {
            "bufferView" : 15,
            "componentType" : 5126,
            "count" : 216,
            "max" : [
                1,
                1,
                1
            ],
            "min" : [
                -1,
                -1,
                -1
            ],
            "type" : "VEC3"
        },
        {
            "bufferView" : 16,
            "componentType" : 5126,
            "count" : 216,
            "type" : "VEC3"
        },
        {
            "bufferView" : 17,
            "componentType" : 5126,
            "count" : 216,
            "type" : "VEC2"
        }
    ],
    "bufferViews" : [
        {
            "buffer" : 0,
            "byteLength" : 1440,
            "byteOffset" : 0
        },
        {
            "buffer" : 0,
            "byteLength" : 1440,
            "byteOffset" : 1440
        },
        {
            "buffer" : 0,
            "byteLength" : 960,
            "byteOffset" : 2880
        },
        {
            "buffer" : 0,
            "byteLength" : 264,
            "byteOffset" : 3840
        },
        {
            "buffer" : 0,
            "byteLength" : 1368,
            "byteOffset" : 4104
        },
        {
            "buffer" : 0,
            "byteLength" : 1368,
            "byteOffset" : 5472
        },
        {
            "buffer" : 0,
            "byteLength" : 912,
            "byteOffset" : 6840
        },
        {
            "buffer" : 0,
            "byteLength" : 228,
            "byteOffset" : 7752
        },
        {
            "buffer" : 0,
            "byteLength" : 1440,
            "byteOffset" : 7980
        },
        {
            "buffer" : 0,
            "byteLength" : 1440,
            "byteOffset" : 9420
        },
        {
            "buffer" : 0,
            "byteLength" : 960,
            "byteOffset" : 10860
        },
        {
            "buffer" : 0,
            "byteLength" : 2592,
            "byteOffset" : 11820
        },
        {
            "buffer" : 0,
            "byteLength" : 2592,
            "byteOffset" : 14412
        },
        {
            "buffer" : 0,
            "byteLength" : 1728,
            "byteOffset" : 17004
        },
        {
            "buffer" : 0,
            "byteLength" : 648,
            "byteOffset" : 18732
        },
        {
            "buffer" : 0,
            "byteLength" : 2592,
            "byteOffset" : 19380
        },
        {
            "buffer" : 0,
            "byteLength" : 2592,
            "byteOffset" : 21972
        },
        {
            "buffer" : 0,
            "byteLength" : 1728,
            "byteOffset" : 24564
        }
    ],
    "buffers" : [
        {
            "byteLength" : 26292,
            "uri" : "data:application/octet-stream;base64,"
        }
    ]
}
